<svg xmlns="http://www.w3.org/2000/svg" viewBox="0 0 750 500"><g id="freepik--background-complete--inject-285"><g><g><rect x="63.4" y="218.89" width="1" height="4.57" style="fill:#dbdbdb;"></rect><rect x="57.43" y="221.33" width="1" height="4.57" transform="translate(-141.15 106.45) rotate(-45)" style="fill:#dbdbdb;"></rect><rect x="53.14" y="229.06" width="4.57" height="1" style="fill:#dbdbdb;"></rect><rect x="55.58" y="235.03" width="4.57" height="1" transform="translate(-149.6 109.9) rotate(-45)" style="fill:#dbdbdb;"></rect><rect x="63.31" y="235.75" width="1" height="4.57" style="fill:#dbdbdb;"></rect><rect x="69.28" y="233.31" width="1" height="4.57" transform="translate(-146.15 118.35) rotate(-45)" style="fill:#dbdbdb;"></rect><rect x="70" y="229.15" width="4.57" height="1" style="fill:#dbdbdb;"></rect><rect x="67.57" y="223.18" width="4.57" height="1" transform="translate(-137.7 114.91) rotate(-45)" style="fill:#dbdbdb;"></rect></g><g><rect x="186.7" y="153.17" width="1" height="4.57" style="fill:#dbdbdb;"></rect><rect x="180.73" y="155.6" width="1" height="4.57" transform="translate(-58.56 174.39) rotate(-45)" style="fill:#dbdbdb;"></rect><rect x="176.44" y="163.34" width="4.57" height="1" style="fill:#dbdbdb;"></rect><rect x="178.88" y="169.31" width="4.57" height="1" transform="translate(-67.01 177.84) rotate(-45)" style="fill:#dbdbdb;"></rect><rect x="186.61" y="170.03" width="1" height="4.57" style="fill:#dbdbdb;"></rect><rect x="192.59" y="167.59" width="1" height="4.57" transform="translate(-63.57 186.31) rotate(-45)" style="fill:#dbdbdb;"></rect><rect x="193.3" y="163.43" width="4.57" height="1" style="fill:#dbdbdb;"></rect><rect x="190.87" y="157.46" width="4.57" height="1" transform="translate(-55.12 182.84) rotate(-45)" style="fill:#dbdbdb;"></rect></g><g><rect x="542.56" y="170.38" width="1" height="4.57" style="fill:#dbdbdb;"></rect><rect x="536.59" y="172.81" width="1" height="4.57" transform="translate(33.48 431.02) rotate(-45)" style="fill:#dbdbdb;"></rect><rect x="532.3" y="180.55" width="4.57" height="1" style="fill:#dbdbdb;"></rect><rect x="534.74" y="186.52" width="4.57" height="1" transform="translate(25.05 434.51) rotate(-45)" style="fill:#dbdbdb;"></rect><rect x="542.47" y="187.24" width="1" height="4.57" style="fill:#dbdbdb;"></rect><rect x="548.44" y="184.8" width="1" height="4.57" transform="translate(28.51 443) rotate(-45)" style="fill:#dbdbdb;"></rect><rect x="549.16" y="180.64" width="4.57" height="1" style="fill:#dbdbdb;"></rect><rect x="546.72" y="174.66" width="4.57" height="1" transform="translate(36.94 439.51) rotate(-45)" style="fill:#dbdbdb;"></rect></g><g><rect x="685.69" y="82.73" width="1" height="4.57" style="fill:#dbdbdb;"></rect><rect x="679.71" y="85.17" width="1" height="4.57" transform="translate(137.33 506.52) rotate(-44.99)" style="fill:#dbdbdb;"></rect><rect x="675.43" y="92.9" width="4.57" height="1" style="fill:#dbdbdb;"></rect><rect x="677.86" y="98.88" width="4.57" height="1" transform="translate(128.94 510.04) rotate(-45)" style="fill:#dbdbdb;"></rect><rect x="685.6" y="99.59" width="1" height="4.57" style="fill:#dbdbdb;"></rect><rect x="691.57" y="97.16" width="1" height="4.57" transform="translate(132.42 518.54) rotate(-45)" style="fill:#dbdbdb;"></rect><rect x="692.29" y="92.99" width="4.57" height="1" style="fill:#dbdbdb;"></rect><rect x="689.85" y="87.02" width="4.57" height="1" transform="translate(140.84 515.05) rotate(-45)" style="fill:#dbdbdb;"></rect></g><g><rect x="390.73" y="83.99" width="1" height="4.57" style="fill:#dbdbdb;"></rect><rect x="384.76" y="86.42" width="1" height="4.57" transform="translate(50.13 298.42) rotate(-45)" style="fill:#dbdbdb;"></rect><rect x="380.47" y="94.16" width="4.57" height="1" style="fill:#dbdbdb;"></rect><rect x="382.9" y="100.13" width="4.57" height="1" transform="translate(41.66 301.84) rotate(-45)" style="fill:#dbdbdb;"></rect><rect x="390.64" y="100.85" width="1" height="4.57" style="fill:#dbdbdb;"></rect><rect x="396.61" y="98.41" width="1" height="4.57" transform="translate(45.12 310.32) rotate(-45)" style="fill:#dbdbdb;"></rect><rect x="397.33" y="94.25" width="4.57" height="1" style="fill:#dbdbdb;"></rect><rect x="394.89" y="88.28" width="4.57" height="1" transform="translate(53.56 306.85) rotate(-45)" style="fill:#dbdbdb;"></rect></g><g><rect x="415.19" y="58.02" width="1" height="2.52" style="fill:#dbdbdb;"></rect><rect x="411.9" y="59.37" width="1" height="2.52" transform="translate(77.98 309.46) rotate(-45.02)" style="fill:#dbdbdb;"></rect><rect x="409.75" y="63.41" width="2.52" height="1" style="fill:#dbdbdb;"></rect><rect x="411.1" y="66.71" width="2.52" height="1" transform="translate(73.25 311.27) rotate(-45)" style="fill:#dbdbdb;"></rect><rect x="415.14" y="67.33" width="1" height="2.52" style="fill:#dbdbdb;"></rect><rect x="418.44" y="65.99" width="1" height="2.52" transform="translate(75.12 315.89) rotate(-44.99)" style="fill:#dbdbdb;"></rect><rect x="419.06" y="63.46" width="2.52" height="1" style="fill:#dbdbdb;"></rect><rect x="417.72" y="60.17" width="2.52" height="1" transform="translate(79.82 314.03) rotate(-45)" style="fill:#dbdbdb;"></rect></g><g><rect x="339.93" y="141.49" width="1" height="2.52" style="fill:#dbdbdb;"></rect><rect x="336.63" y="142.83" width="1" height="2.52" transform="translate(-3.15 280.59) rotate(-45)" style="fill:#dbdbdb;"></rect><rect x="334.48" y="146.88" width="2.52" height="1" style="fill:#dbdbdb;"></rect><rect x="335.83" y="150.18" width="2.52" height="1" transform="translate(-7.81 282.49) rotate(-45)" style="fill:#dbdbdb;"></rect><rect x="339.87" y="150.8" width="1" height="2.52" style="fill:#dbdbdb;"></rect><rect x="343.17" y="149.45" width="1" height="2.52" transform="translate(-5.91 287.16) rotate(-45)" style="fill:#dbdbdb;"></rect><rect x="343.79" y="146.93" width="2.52" height="1" style="fill:#dbdbdb;"></rect><rect x="342.45" y="143.63" width="2.52" height="1" transform="translate(-1.25 285.25) rotate(-45)" style="fill:#dbdbdb;"></rect></g><g><rect x="596.87" y="147.77" width="1" height="2.52" style="fill:#dbdbdb;"></rect><rect x="593.57" y="149.11" width="1" height="2.52" transform="translate(67.63 464.04) rotate(-44.99)" style="fill:#dbdbdb;"></rect><rect x="591.43" y="153.16" width="2.52" height="1" style="fill:#dbdbdb;"></rect><rect x="592.77" y="156.46" width="2.52" height="1" transform="translate(63 466.02) rotate(-45)" style="fill:#dbdbdb;"></rect><rect x="596.82" y="157.08" width="1" height="2.52" style="fill:#dbdbdb;"></rect><rect x="600.12" y="155.73" width="1" height="2.52" transform="translate(64.95 470.75) rotate(-45.01)" style="fill:#dbdbdb;"></rect><rect x="600.74" y="153.21" width="2.52" height="1" style="fill:#dbdbdb;"></rect><rect x="599.39" y="149.91" width="2.52" height="1" transform="translate(69.57 468.78) rotate(-45)" style="fill:#dbdbdb;"></rect></g><g><rect x="134.23" y="90.79" width="1" height="2.52" style="fill:#dbdbdb;"></rect><rect x="130.93" y="92.14" width="1" height="2.52" transform="translate(-27.55 120.29) rotate(-45)" style="fill:#dbdbdb;"></rect><rect x="128.79" y="96.18" width="2.52" height="1" style="fill:#dbdbdb;"></rect><rect x="130.14" y="99.48" width="2.52" height="1" transform="translate(-32.21 122.2) rotate(-45)" style="fill:#dbdbdb;"></rect><rect x="134.18" y="100.1" width="1" height="2.52" style="fill:#dbdbdb;"></rect><rect x="137.48" y="98.76" width="1" height="2.52" transform="translate(-30.31 126.86) rotate(-45)" style="fill:#dbdbdb;"></rect><rect x="138.1" y="96.24" width="2.52" height="1" style="fill:#dbdbdb;"></rect><rect x="136.75" y="92.94" width="2.52" height="1" transform="translate(-25.65 124.96) rotate(-45)" style="fill:#dbdbdb;"></rect></g></g><g><polygon points="555.31 204.6 555.31 402.68 498.42 402.68 498.42 450.68 450.4 402.68 194.69 402.68 194.69 204.6 555.31 204.6" style="fill:#ebebeb;"></polygon><g><circle cx="294.74" cy="303.64" r="16.08" transform="translate(-125.03 250.17) rotate(-38.59)" style="fill:#263238;"></circle><circle cx="375" cy="303.64" r="16.08" transform="translate(-107.21 286.49) rotate(-36.96)" style="fill:#263238;"></circle><circle cx="455.27" cy="303.64" r="16.08" transform="translate(-72.25 158.06) rotate(-18.27)" style="fill:#263238;"></circle></g></g></g><g id="freepik--Floor--inject-285"><path d="M47.89,452.85c209.57-.61,444.65-.62,654.22,0-209.57,.62-444.65,.61-654.22,0h0Z" style="fill:#263238;"></path></g><g id="freepik--Speech_Bubbles_2--inject-285"><g><g><polygon points="496.92 93.05 496.92 145.56 512 145.56 512 158.28 524.73 145.56 592.52 145.56 592.52 93.05 496.92 93.05" style="fill:#fff;"></polygon><path d="M496.92,93.05c-.24,17.05,.81,36.62,0,52.23l15.08-.03h.31v.31l.03,12.73-.57-.24,12.7-12.75,.11-.11h.16c19.95-.04,48.11-.14,67.79-.1l-.48,.48,.11-52.51,.36,.36c-23.83-.01-71.77-.23-95.6-.36h0Zm0,0c23.82-.13,71.78-.35,95.6-.36h.36v.36l.11,52.51v.48c-19.78,.07-48.2-.09-68.27-.1l.27-.11-12.76,12.7-.57,.57v-.81l.03-12.73,.31,.31-15.08-.03h-.28v-.28c.01-17.58,.22-35.09,.28-52.51h0Z" style="fill:#263238;"></path></g><g><circle cx="566" cy="119.3" r="4.26" style="fill:#263238;"></circle><circle cx="544.72" cy="119.3" r="4.26" style="fill:#263238;"></circle><circle cx="523.44" cy="119.3" r="4.26" style="fill:#263238;"></circle></g></g><g><g><polygon points="276.44 50.53 276.44 84.82 266.59 84.82 266.59 93.13 258.28 84.82 214.02 84.82 214.02 50.53 276.44 50.53" style="fill:#fff;"></polygon><path d="M276.44,50.53l.29,34.28v.29h-.29l-9.85,.05,.34-.34,.05,8.31v.94l-.66-.66-8.34-8.28c1.62,.37-44.31,.06-43.96,.18h-.49v-.49l.06-34.28v-.43h.43c15.56,.08,46.87,.28,62.42,.43h0Zm0,0c-15.56,.16-46.87,.35-62.42,.43l.43-.43,.06,34.28-.49-.49c.22,0,44.25,.06,44.44,.06l.13,.13,8.28,8.34-.66,.28,.05-8.31v-.35h.34l9.85,.05-.29,.29,.29-34.28h0Z" style="fill:#263238;"></path></g><g><circle cx="231.34" cy="67.67" r="2.78" style="fill:#263238;"></circle><circle cx="245.23" cy="67.67" r="2.78" style="fill:#263238;"></circle><circle cx="259.13" cy="67.67" r="2.78" style="fill:#263238;"></circle></g></g><g><g><polygon points="483.93 42.64 483.93 76.93 493.78 76.93 493.78 85.24 502.09 76.93 546.35 76.93 546.35 42.64 483.93 42.64" style="fill:#fff;"></polygon><path d="M483.93,42.64l.29,34.28-.29-.29,9.85-.05h.34v.34l.05,8.31-.66-.28,8.28-8.34,.13-.13c.16,.01,44.27-.06,44.44-.06l-.49,.49,.06-34.28,.43,.43c-15.56-.06-46.86-.29-62.42-.43h0Zm0,0c15.55-.13,46.87-.37,62.42-.43h.43v.43l.06,34.28v.49h-.49l-44.26-.06,.31-.13-8.34,8.28-.67,.66v-.94l.05-8.31,.34,.34-9.85-.05h-.29v-.29l.29-34.28h0Z" style="fill:#263238;"></path></g><g><circle cx="529.03" cy="59.78" r="2.78" style="fill:#263238;"></circle><circle cx="515.14" cy="59.78" r="2.78" style="fill:#263238;"></circle><circle cx="501.25" cy="59.78" r="2.78" style="fill:#263238;"></circle></g></g></g><g id="freepik--Speech_Bubbles_1--inject-285"><g><g><polygon points="152.3 100.94 152.3 135.23 162.15 135.23 162.15 143.54 170.46 135.23 214.72 135.23 214.72 100.94 152.3 100.94" style="fill:#D90368;"></polygon><g><circle cx="197.41" cy="118.08" r="2.78" style="fill:#fff;"></circle><circle cx="183.51" cy="118.08" r="2.78" style="fill:#fff;"></circle><path d="M166.84,118.08c0,1.54,1.25,2.78,2.78,2.78s2.78-1.25,2.78-2.78-1.25-2.78-2.78-2.78-2.78,1.25-2.78,2.78Z" style="fill:#fff;"></path></g></g><g><polygon points="649.24 88.24 649.24 122.52 639.39 122.52 639.39 130.83 631.08 122.52 586.82 122.52 586.82 88.24 649.24 88.24" style="fill:#D90368;"></polygon><g><circle cx="604.14" cy="105.38" r="2.78" style="fill:#fff;"></circle><circle cx="618.03" cy="105.38" r="2.78" style="fill:#fff;"></circle><circle cx="631.92" cy="105.38" r="2.78" style="fill:#fff;"></circle></g></g></g></g><g id="freepik--Character_3--inject-285"><g><g><g><g><g><path d="M529,431.6c-2.64-.35-67.67-32.11-69.38-34.89-.66-1.05,3.42-10.79,8.67-22.42,1.13-2.51,5.68-42.85,5.68-42.85l44.08,16.62-7.77,46.59s19.46,23.3,21.01,26.55c1.54,3.24,.36,10.76-2.28,10.41Z" style="fill:#eb9481;"></path><path d="M459.62,396.71c1.71,2.78,66.73,34.54,69.37,34.89,2.64,.35,3.82-7.17,2.29-10.4-1.56-3.26-21.01-26.55-21.01-26.55l1.61-9.68-42.27-18.16c-.56,3.99-1.04,6.87-1.33,7.48-5.25,11.63-9.32,21.37-8.67,22.43Z" style="fill:#ebebeb;"></path></g><g><path d="M529,431.6c-2.64-.35-67.67-32.11-69.38-34.89-.66-1.05,3.42-10.79,8.67-22.42l41.98,20.36s19.46,23.3,21.01,26.55c1.54,3.24,.36,10.76-2.28,10.41Z" style="fill:#D90368;"></path><g><g><path d="M529.34,428.54c-10.77-5.59-54.73-27.13-65.8-31.84-.09-.04-.12,.02-.03,.07,10.55,5.78,54.69,26.96,65.75,31.95,.23,.1,.31-.06,.09-.18Z" style="fill:#263238;"></path><path d="M528.25,416.81c-2.53-1.37-5.66-1.37-7.82-.52-2.08,.82-4.25,2.33-5.28,4.63-.03,.07,.09,.13,.13,.06,2.71-3.96,8.42-5.81,12.9-4.03,.09,.04,.15-.09,.07-.14Z" style="fill:#263238;"></path><path d="M513.97,397.8c-4.33-2.19-10.14-3.12-14.6-.88-.17,.09-.05,.33,.12,.33,4.94-.11,9.43,.21,14.29,1.13,.34,.06,.5-.42,.19-.57Z" style="fill:#263238;"></path><path d="M516.7,400.75c-4.33-2.19-10.14-3.12-14.6-.88-.17,.09-.05,.33,.12,.33,4.94-.11,9.43,.21,14.29,1.13,.34,.06,.5-.42,.19-.57Z" style="fill:#263238;"></path><path d="M519.43,403.71c-4.33-2.19-10.14-3.12-14.6-.88-.17,.09-.05,.33,.12,.33,4.94-.11,9.43,.21,14.29,1.13,.34,.06,.5-.42,.19-.57Z" style="fill:#263238;"></path><path d="M522.15,406.67c-4.33-2.19-10.14-3.12-14.6-.88-.17,.09-.05,.33,.12,.33,4.94-.11,9.43,.21,14.29,1.13,.34,.06,.5-.42,.19-.57Z" style="fill:#263238;"></path><path d="M471.37,387.71c-4.9-2.38-8.6,5.24-3.69,7.62,4.9,2.38,8.6-5.24,3.69-7.62Z" style="fill:#263238;"></path></g><path d="M524.38,388.46c-1.31-2.91-4.97-2.48-7.26-1.24-3.71,2-7.33,5.58-9.41,9.22-.05,.09,0,.16,.08,.19-.06,.36,.18,.8,.61,.74,4.16-.63,8.68-.79,12.51-2.68,2.24-1.1,4.71-3.47,3.47-6.22Zm-9.88,6.66c-2.04,.36-4.08,.62-6.1,1.05,1.84-1.79,3.6-3.66,5.62-5.26,.96-.77,1.97-1.54,3.03-2.16,1.65-.98,7.72-2.53,5.83,2.43-1.04,2.73-5.95,3.52-8.38,3.95Z" style="fill:#263238;"></path><path d="M496.07,392.76c3.51,2.44,7.96,3.27,11.98,4.52,.42,.13,.72-.27,.72-.64,.08-.02,.14-.08,.1-.18-1.51-3.91-4.56-7.99-7.93-10.52-2.08-1.56-5.63-2.54-7.36,.15-1.64,2.54,.45,5.25,2.5,6.67Zm-1.42-3.77c-1.12-5.18,4.64-2.74,6.13-1.53,.96,.78,1.84,1.69,2.67,2.59,1.76,1.89,3.22,3.99,4.77,6.04-1.93-.73-3.92-1.29-5.87-1.95-2.34-.79-7.08-2.3-7.69-5.15Z" style="fill:#263238;"></path></g></g></g><g><path d="M464.8,368.66l52.76,22.89s14.45-92.76,11.04-130.38c-2.32-25.57-35.14-59.97-50.96-82.93-.92-1.33-3.62-16.33-3.62-16.33h-43.48l.68,32.77c.98,19.92,45.8,60.37,46.2,72.29,.45,13.32-12.63,101.69-12.63,101.69Z" style="fill:#263238;"></path><g><path d="M516.65,378.26c-12.04-6.27-44.71-20.04-46.46-20.46-.11-.03-.19,.14-.11,.2,1.29,.9,32.17,15.6,46.48,20.43,.11,.04,.19-.11,.09-.17Z" style="fill:#37474f;"></path><path d="M441.46,202.38c.41,.79,.85,1.57,1.32,2.34,1.66,2.7,3.63,5.19,5.56,7.7,2.1,2.73,4.2,5.46,6.31,8.19,4.2,5.46,8.36,10.97,12.57,16.42,4.08,5.28,8.24,10.52,12.16,15.91,1.77,2.43,3.42,4.96,4.55,7.75,1.15,2.84,1.72,5.84,1.87,8.89,.32,6.48-.89,13.06-1.69,19.47-.85,6.77-1.76,13.52-2.73,20.27-.97,6.75-2.01,13.5-3.09,20.23-1.06,6.62-1.97,13.33-3.42,19.88-.37,1.69-.67,3.4-.99,5.1-.02,.09-.17,.06-.16-.03,2.06-13.46,4.02-26.93,5.88-40.42,.93-6.75,1.81-13.51,2.68-20.27,.84-6.57,1.9-13.18,2.26-19.79,.18-3.18,.11-6.42-.61-9.54-.7-3.04-2.12-5.79-3.85-8.37-1.79-2.67-3.82-5.2-5.79-7.74-2.11-2.72-4.19-5.48-6.29-8.21-4.2-5.46-8.41-10.93-12.59-16.41-4-5.24-8.18-10.4-11.97-15.79-1.76-2.51-3.33-5.15-4.41-8.01-1.05-2.81-1.6-5.78-1.91-8.75-.67-6.54-.31-13.19-.18-19.75,.03-1.67,.07-3.34,.12-5.01,0-.14,.21-.13,.21,0,.3,6.66,.37,13.34,.64,20,.13,3.24,.42,6.49,1.19,9.66,.54,2.2,1.34,4.29,2.36,6.29" style="fill:#37474f;"></path></g></g></g><g><g><g><path d="M472.82,282.77c.36-2.64-13.21-73.73-15.44-76.11-.84-.91-11.31,.46-23.91,2.48-2.72,.44-42.84-5.78-42.84-5.78l4.46,46.9,46.99,4.74s17.37,24.89,20.09,27.25c2.72,2.34,10.29,3.17,10.64,.53Z" style="fill:#eb9481;"></path><path d="M457.39,206.66c2.23,2.38,15.79,73.46,15.44,76.1-.36,2.64-7.92,1.81-10.64-.53-2.73-2.36-20.1-27.25-20.1-27.25l-9.76-.99-6.42-45.56c4,.5,6.9,.8,7.57,.69,12.61-2.01,23.07-3.38,23.91-2.47Z" style="fill:#ebebeb;"></path></g><g><path d="M472.82,282.77c.36-2.64-13.21-73.73-15.44-76.11-.84-.91-11.31,.46-23.91,2.48l8.61,45.86s17.37,24.89,20.09,27.25c2.72,2.34,10.29,3.17,10.64,.53Z" style="fill:#D90368;"></path><g><g><path d="M469.78,282.29c-2.57-11.86-11.8-59.94-13.43-71.86-.01-.1,.05-.11,.07-.01,2.8,11.7,11.64,59.85,13.56,71.83,.04,.25-.14,.29-.2,.04Z" style="fill:#263238;"></path><path d="M458.75,278.16c-.65-2.8,.16-5.82,1.55-7.68,1.33-1.79,3.37-3.49,5.85-3.88,.07-.01,.1,.12,.03,.14-4.53,1.57-7.82,6.59-7.28,11.39,.01,.1-.13,.12-.15,.03Z" style="fill:#263238;"></path><path d="M444.15,259.39c-.98-4.76-.35-10.61,2.99-14.32,.13-.14,.33,.04,.29,.2-1.4,4.74-2.27,9.15-2.67,14.09-.03,.35-.53,.37-.6,.03Z" style="fill:#263238;"></path><path d="M446.29,262.8c-.98-4.76-.35-10.61,2.99-14.32,.13-.14,.33,.04,.29,.2-1.4,4.74-2.27,9.15-2.67,14.09-.03,.35-.53,.37-.6,.03Z" style="fill:#263238;"></path><path d="M448.43,266.21c-.98-4.76-.35-10.61,2.99-14.32,.13-.14,.33,.04,.29,.2-1.4,4.74-2.27,9.15-2.67,14.09-.03,.35-.53,.37-.6,.03Z" style="fill:#263238;"></path><path d="M450.57,269.62c-.98-4.76-.35-10.61,2.99-14.32,.13-.14,.33,.04,.29,.2-1.4,4.74-2.27,9.15-2.67,14.09-.03,.35-.53,.37-.6,.03Z" style="fill:#263238;"></path><path d="M445.61,215.63c-1.01-5.35,7.31-6.93,8.32-1.56,1.01,5.35-7.31,6.93-8.32,1.56Z" style="fill:#263238;"></path></g><path d="M439.33,265.26c2.83-3.21,4.17-7.53,5.87-11.37,.18-.4-.19-.75-.55-.78,0-.08-.06-.15-.16-.12-4.06,1.05-8.46,3.61-11.37,6.66-1.79,1.89-3.17,5.3-.71,7.33,2.33,1.92,5.27,.16,6.92-1.71Zm-3.91,.97c-5.28,.52-2.19-4.93-.81-6.26,.89-.86,1.89-1.63,2.88-2.36,2.08-1.53,4.34-2.73,6.55-4.04-.95,1.84-1.74,3.74-2.62,5.61-1.05,2.23-3.1,6.76-6.01,7.05Z" style="fill:#263238;"></path><path d="M438.21,236.62c-3.04,.97-3.04,4.65-2.08,7.07,1.56,3.92,4.69,7.93,8.07,10.42,.08,.06,.16,.02,.2-.05,.35,.1,.82-.09,.8-.52-.15-4.2,.22-8.71-1.21-12.74-.84-2.35-2.9-5.08-5.78-4.17Zm5.47,10.59c.12,2.06,.14,4.12,.34,6.18-1.57-2.04-3.22-4-4.58-6.19-.65-1.05-1.3-2.13-1.8-3.26-.78-1.75-1.62-7.96,3.08-5.51,2.6,1.35,2.81,6.32,2.95,8.78Z" style="fill:#263238;"></path></g></g></g><g><path d="M446.58,161.92h-31.69s-1.82,12.12-4.82,13.53c-8.89,4.19-47.14,9.38-69.62,21.28-19.35,10.24-21.7,34.4,4.57,44.49,36.03,13.83,84.72,16.21,84.72,16.21l-2.87-52.84s-35.56-4.06-62.52-3.38c0,0,27.46,13.44,57.91,8.21,6.96-1.2,14.7-1.71,21.59-4.27l2.73-43.23Z" style="fill:#263238;"></path><g><path d="M420.12,252.02c-.27-2.98-.26-6-.37-8.98-.12-2.99-.23-5.99-.36-8.98-.24-5.97-1.65-26.36-2.01-27.92-.02-.1-.18-.08-.19,.02-.17,1.43,.4,14.75,.57,17.74,.34,5.98,.86,11.94,1.33,17.91,.13,1.71,.3,3.41,.45,5.11,.15,1.7,.36,3.41,.42,5.11,0,.1,.17,.09,.16-.01Z" style="fill:#37474f;"></path><path d="M351.32,200.81c5.67-.67,11.37-.94,17.07-.96-2.19-.48-4.4-.87-6.59-1.21-.13-.02-.13-.22,0-.2,2.62,.21,5.14,.73,7.64,1.41,3.77,.01,7.54,.13,11.31,.32,9.86,.51,19.68,1.44,29.5,2.41,5.58,.55,11.15,1.13,16.73,1.7,.26,.03,.46,.21,.46,.49,0,1.46-.11,2.92-.17,4.38-.01,.37-.56,.35-.57-.01-.06-1.31-.15-2.63-.19-3.94-9.7-.8-19.4-1.64-29.1-2.48-9.83-.85-19.66-1.47-29.52-1.7-5.52-.13-11.03-.15-16.56,0-.11,0-.14-.19-.02-.2Z" style="fill:#37474f;"></path><path d="M349.25,204.39c8.6,.02,17.18,.22,25.75,.83,8.48,.61,16.96,1.4,25.39,2.57,2.33,.32,4.66,.66,6.98,1.03,2.37,.38,4.71,.87,7.07,1.28,.09,.02,.07,.17-.03,.16-4.24-.58-8.51-1.01-12.77-1.51-4.18-.49-8.36-.97-12.55-1.39-8.47-.84-16.95-1.52-25.44-2.02-4.8-.28-9.61-.59-14.42-.77-.12,0-.12-.19,0-.19Z" style="fill:#37474f;"></path><g><path d="M450.58,193.06c-4.67,1.35-9.22,3.39-13.57,5.54-.17,.08-.07,.35,.11,.28,4.56-1.7,9.21-3.32,13.68-5.27,.35-.15,.15-.65-.21-.55Z" style="fill:#37474f;"></path><path d="M453.59,162.19c0-.16-.27-.21-.28-.04-.24,5.36-.82,10.05-1.52,15.03-.33,2.31-2.84,15.05-6.78,13.91-.66-.19-.97-.87-1.02-1.9-.06-1.23,.47-2.7,.73-3.91,.58-2.66,1.07-5.34,1.44-8.04,.69-5.04,.97-10.11,.62-15.19-.01-.17-.25-.17-.26,0-.35,7.01-.9,14.01-2.29,20.9-.67,3.31-2.59,8.25,.84,8.95,3.49,.71,6.2-7.59,6.75-9.87,1.53-6.36,1.93-13.3,1.77-19.83Z" style="fill:#37474f;"></path><path d="M445.1,191.44c-.4,.84-.74,1.73-1.03,2.61-.23,.69-.53,1.43-.49,2.17,0,.14,.19,.17,.27,.07,.5-.57,.74-1.38,1.04-2.08,.35-.81,.71-1.61,1.03-2.42,.21-.54-.57-.87-.82-.35Z" style="fill:#37474f;"></path></g></g></g></g></g><g><g><path d="M462.83,59.38s-9.47-5.13-19.27,3.69c-11.66,10.49-7.89,46.35-8.62,49.56-.73,3.21-2.11,3.98-2.57,6.85-.46,2.87,1.92,4.74,2.21,5.76,.29,1.02-2.56,6.28-2.56,6.28,0,0,14.38,3.16,24.46,2.71,10.49-.47,22.23-3.99,22.23-3.99,0,0-2.26-3.17-2.26-4.68,0-1.5,1.75-3.52,1.6-6.25-.14-2.73-4.3-6.05-4.72-7.51-.42-1.47,1.65-33.98-.75-43.46-2.4-9.48-9.75-8.96-9.75-8.96Z" style="fill:#263238;"></path><path d="M479.2,129.46c-.84-1.03-1.67-2.1-2.21-3.35-.12-.31-.24-.67-.18-1.04,.49-2.19,2.4-4.14,2.02-6.49-.49-1.8-2.25-3.28-3.43-4.67-.67-.8-1.46-1.62-1.64-2.73-.03-.4-.02-.71-.02-1.05,.35-11.28,1.15-28.05-.73-39.24-.49-2.6-1.15-5.24-2.62-7.48,1.64,2.14,2.41,4.81,3.03,7.39,2.32,11.17,1.6,28.03,1.1,39.35,0,.32-.02,.68,0,.95,.15,.89,.84,1.63,1.42,2.35,1.24,1.53,2.98,3.03,3.44,5.03,.35,2.51-1.63,4.4-2.3,6.63-.06,.3,.02,.61,.13,.92,.47,1.23,1.23,2.36,2,3.43h0Z" style="fill:#263238;"></path><path d="M431.22,130.11c.64-1.39,1.56-3.14,2.08-4.54v-.05c-.07-.21-.25-.4-.39-.6-1.26-1.55-2.31-3.45-2.11-5.52,.15-2.42,1.81-4.48,2.6-6.61,.58-1.48,.47-2.99,.43-4.53-.39-13.22-.66-35.64,9.48-45.32,1.15-1.09,2.5-1.96,3.95-2.59-1.41,.71-2.69,1.64-3.79,2.75-9.53,9.99-9.06,31.95-8.88,45.14,.05,1.59,.1,3.3-.54,4.79-.9,2.25-2.51,4.01-2.74,6.42-.18,1.53,.37,3.04,1.19,4.33,.31,.51,.68,.96,.99,1.47,.04,.08,.09,.17,.09,.28-.62,1.6-1.55,3.06-2.35,4.57h0Z" style="fill:#263238;"></path></g><g><g><path d="M456.51,116.54c5.74,10.29,31.76,47.39,44.14,47.34,8.79-.03,43.4-16.43,50-21.48,3.75-2.87-17.94-28.66-22.79-25.62-6.89,4.32-23.18,16.73-27.36,16.85-2.26,.06-16.08-10.8-35.64-25.22-10.05-7.41-13.3-.77-8.34,8.12Z" style="fill:#eb9481;"></path><g><g><path d="M549.38,143.29c3.45-1.41,21.57-9.52,25.33-12.66,3.76-3.14,13.91-12.96,11.8-16.08-2.11-3.12-5.32-.48-5.32-.48,0,0,3.63-4.83,1.22-7.77-2.41-2.95-7.26,1.32-7.26,1.32,0,0,3.37-5.23,.75-8-2.62-2.77-6.77,2.34-6.77,2.34,0,0,3.3-4.64,.19-6.01-3.75-1.65-8.87,7.58-13.28,10.74-1,.72-21.32,13.08-21.32,13.08l14.66,23.52Z" style="fill:#eb9481;"></path><g><path d="M569.5,101.53c-3.78,6.78-6.61,9.1-13.32,12.75-.13,.07-.05,.28,.09,.22,6.9-2.98,10.87-5.37,13.57-12.81,.13-.36-.16-.49-.34-.17Z" style="fill:#263238;"></path><path d="M575.45,107.08c-4.54,6.7-7.59,9.24-14.34,13.59-.1,.06,0,.23,.1,.18,6.98-3.71,10.88-6.19,14.54-13.48,.17-.33-.09-.59-.3-.28Z" style="fill:#263238;"></path><path d="M580.85,114.28c-4.87,6.17-8.09,9.09-15.18,12.47-.17,.08-.07,.33,.11,.27,7.57-2.74,11.61-6.36,15.24-12.57,.25-.42,.13-.56-.17-.17Z" style="fill:#263238;"></path></g></g><g><path d="M527.86,116.79s5.71-7.88,8.98-10.79c3.27-2.91,19.45-9.27,21.02-5.85,2.03,4.41-6.59,9.92-11.16,12.07,0,0,4.7,10.2-.63,15.49-5.33,5.29-18.21-10.92-18.21-10.92Z" style="fill:#eb9481;"></path><path d="M558.02,101.54c-1.05,5.36-7.24,7.79-11.52,10.2-.33,.18-.29,.51-.1,.73,1.69,4.41,2.78,11.11-.02,15.23-.08,.12,.08,.25,.18,.14,3.6-4.01,3.07-10.69,.91-15.39,4.43-2.41,10.52-5.12,10.61-10.91,0-.03-.05-.04-.05,0Z" style="fill:#263238;"></path></g></g></g><g><path d="M493.93,128l-27.11,11.27s-10.33-15.59-13.92-26.47c-2.74-8.3,1.71-10.46,6.93-7.92,17.39,8.46,34.09,23.12,34.09,23.12Z" style="fill:#D90368;"></path><path d="M465.94,134.47c4.05-2.03,15.2-7.22,22.88-9.65,.05-.01,.12,.15,.08,.18-6.09,2.98-18.64,8.05-22.85,9.72-.08,.03-.19-.21-.11-.25Z" style="fill:#263238;"></path><path d="M452.9,112.8c3.59,10.88,13.92,26.46,13.92,26.46l18.06-7.5-30.69-27.51c-2.03,.95-2.89,3.7-1.29,8.55Z" style="opacity:.1;"></path></g></g><g><path d="M474.07,151.42l3.08,20.32-65.43-4.1s16.26-47.36,27.85-59.32c7.84-8.09,15.78-7.24,21.35-1.3,1.41,1.5,16.05,19.3,17.65,28.05,1.39,7.72-4.5,16.35-4.5,16.35Z" style="fill:#D90368;"></path><g><path d="M464.48,146.61c-2.73-.09-5.48-.08-8.19,.24-1.35,.16-2.68,.38-4.02,.63-.67,.12-1.33,.23-2,.32-.69,.1-1.42,.18-2.12,.11-.06,0-.07,.09-.01,.1,.67,.11,1.31,.21,1.99,.23,.65,.02,1.3-.03,1.94-.1,1.37-.15,2.73-.36,4.1-.52,2.76-.33,5.52-.65,8.3-.78,.13,0,.13-.22,0-.23Z" style="fill:#263238;"></path><path d="M470.83,149.9c-2.18-.52-4.42-.95-6.65-1.22-1.12-.14-2.24-.21-3.37-.25-.54-.02-1.08-.03-1.62-.03-.59,0-1.19,.07-1.78,.06-.06,0-.07,.09-.01,.1,.56,.03,1.11,.15,1.67,.21,.56,.06,1.12,.12,1.68,.18,1.12,.12,2.24,.26,3.36,.37,2.24,.23,4.47,.47,6.7,.78,.12,.02,.13-.16,.02-.18Z" style="fill:#263238;"></path></g></g><g><g><path d="M437.25,108.49c-17.4,12.91-50.54,42.9-45.73,54.19,7.91,18.56,29.5,41.1,38.19,47.05,3.75,2.57,28.23-22.82,25.11-26.54-3.74-4.47-31.01-24.89-30.69-26.39,.35-1.65,13.57-21.46,20.62-37.14,8.75-19.46-.25-16.56-7.51-11.17Z" style="fill:#eb9481;"></path><g><path d="M440.4,176.24s13.82,.34,22.85,.98c5.04,.36,13.62,1.75,17.2,3.7,5.35,2.93,25.87,18.59,22.18,23.65-3.34,4.58-19.26-11.12-19.26-11.12,0,0,17.47,14.42,12.43,19.19-5.04,4.77-20.67-15.35-20.67-15.35,0,0,17.61,15.21,11.64,19.31-4.51,3.1-19.7-14.33-19.7-14.33,0,0,15.05,13.18,10.55,16.57-4.98,3.74-20-11.47-20-11.47-12.9,6.68-21.78,5.28-27.9,2.35-1.43-.68,10.68-33.49,10.68-33.49Z" style="fill:#eb9481;"></path><g><path d="M478.45,188.79c13.68,9.64,17.43,18.55,17.28,18.34-3.49-5.12-10.41-11.67-12.38-13.48-1.96-1.8-3.02-2.99-4.98-4.79-.05-.05,.02-.11,.07-.07Z" style="fill:#263238;"></path><path d="M471.01,195.05c6.77,4.14,13.02,10.99,14.8,13.69,.14,.22,.02,.22-.17,.04-2.43-2.36-12.15-11.44-14.69-13.67-.04-.03,.01-.08,.06-.06Z" style="fill:#263238;"></path><path d="M464.24,200.01c5.78,4.16,7.94,6.6,11.15,10.94,.15,.21-.04,.22-.23,.03-3.64-3.71-6.46-6.64-11.03-10.82-.07-.07,.02-.21,.11-.14Z" style="fill:#263238;"></path></g></g></g><g><path d="M408.5,127.64l27.14,11.19s10.28-15.62,13.84-26.51c2.71-8.31-1.75-10.45-6.95-7.9-17.37,8.51-34.02,23.22-34.02,23.22Z" style="fill:#D90368;"></path><g><path d="M436.51,134.02c-4.06-2.02-15.22-7.18-22.91-9.58-.05-.01-.12,.15-.08,.18,6.1,2.97,18.66,8,22.88,9.65,.08,.03,.19-.21,.11-.25Z" style="fill:#263238;"></path><path d="M435.91,138.98c1.32-2,2.46-4.13,3.63-6.22,.45-.52,.9-1.04,1.31-1.58,.53-.69,1.04-1.45,1.42-2.22,.02-.04-.03-.07-.06-.04-.25,.34-.48,.71-.72,1.05-.25,.35-.51,.69-.76,1.03-.26,.35-.53,.7-.8,1.04,1.14-2.05,2.23-4.13,3.22-6.26,.03-.06-.05-.11-.09-.06-1.4,2.08-2.7,4.22-3.93,6.4-1.2,2.12-2.46,4.25-3.53,6.45-.39-.13-.77-.26-1.17-.36-.1-.03-.18,.11-.08,.17,.4,.25,.82,.45,1.24,.67,.11,.06,.24,.04,.32-.07Z" style="fill:#263238;"></path></g></g></g><g><path d="M456.95,102.14c7.43,3.8,7.42,16.7,7.42,16.7l-5.9-3.74-5.72,5.81s-5.19-7.55-4.62-14.95c.37-4.85,2.89-6.86,8.82-3.82Z" style="fill:#fff;"></path><g><g><path d="M449.06,105.17c.29,1.69,4.22,9.37,9.36,9.23,2.64-.07,2.77-9.32,2.77-9.32l.14-.68,1.89-9.51-12.91-7.78s-1.33,17.58-1.25,18.06Z" style="fill:#eb9481;"></path><path d="M449.82,93.67c2.98,6.99,8.8,9.79,11.51,10.73l1.89-9.51-12.92-7.78s-.23,3-.48,6.56Z" style="fill:#263238;"></path></g><g><path d="M476.7,80.37c1.36,16.97-8.65,19.7-12.31,19.99-3.32,.26-14.67,.73-17.77-16-3.11-16.74,4.35-22.73,11.92-23.73,7.57-1,16.8,2.78,18.16,19.75Z" style="fill:#eb9481;"></path><g><path d="M473.79,76.67c-.4-.04-.76-.14-1.16-.22-.44-.09-.8-.11-1.14-.45-.18-.18-.17-.55-.01-.74,.37-.44,.94-.47,1.47-.38,.58,.09,1.01,.31,1.4,.75,.38,.43-.04,1.09-.57,1.04Z" style="fill:#263238;"></path><path d="M462.37,76.96c.4-.06,.76-.17,1.14-.27,.44-.11,.8-.15,1.12-.49,.17-.19,.15-.56-.02-.74-.39-.43-.95-.43-1.49-.32-.58,.12-.99,.35-1.37,.81-.36,.44,.09,1.08,.61,1.01Z" style="fill:#263238;"></path><g><g><path d="M464.73,81.21s-.09,.06-.08,.11c.09,1.16,0,2.5-1.04,2.93-.03,.01-.03,.07,.01,.06,1.27-.24,1.38-2.02,1.11-3.1Z" style="fill:#263238;"></path><path d="M463.64,80.05c-1.87-.06-1.85,3.68-.12,3.74,1.7,.05,1.68-3.69,.12-3.74Z" style="fill:#263238;"></path></g><path d="M462.91,80.25c-.33,.21-.64,.59-1.04,.63-.46,.05-.8-.34-1.1-.72-.03-.04-.06,0-.06,.04,0,.72,.27,1.45,1.04,1.55,.7,.09,1.2-.54,1.38-1.27,.03-.13-.08-.33-.22-.24Z" style="fill:#263238;"></path></g><g><g><path d="M471.64,80.96s.09,.05,.09,.1c-.04,1.16,.11,2.49,1.16,2.88,.03,.01,.03,.07,0,.06-1.28-.18-1.46-1.96-1.24-3.05Z" style="fill:#263238;"></path><path d="M472.68,79.75c1.86-.14,2,3.6,.28,3.73-1.7,.13-1.84-3.61-.28-3.73Z" style="fill:#263238;"></path></g><path d="M473.47,79.97c.3,.19,.61,.54,.96,.55,.41,.01,.7-.4,.94-.8,.03-.04,.06-.01,.06,.04,.05,.71-.16,1.47-.84,1.63-.62,.15-1.1-.45-1.3-1.15-.04-.13,.06-.34,.18-.26Z" style="fill:#263238;"></path></g><path d="M464.71,90.29c.21,.33,.4,.75,.8,.88,.39,.12,.89,.05,1.28-.01,.04,0,.07,.04,.04,.07-.39,.37-1.07,.5-1.57,.29-.49-.2-.65-.7-.67-1.2,0-.07,.09-.07,.12-.03Z" style="fill:#263238;"></path><path d="M469.92,86.11s.27,1.73,.28,2.54c0,.08-2.52,.67-4.3-1.25-.07-.07,.04-.16,.12-.12,1.09,.77,2.28,.95,3.56,.95,.05-.23-.56-2.94-.43-2.95,.45-.05,1.33,.24,1.86,.39-.46-3.61-1.49-7.12-1.89-10.73-.01-.13,.17-.17,.21-.06,1.34,3.6,1.96,7.75,2.53,11.47,.08,.46-1.62-.12-1.95-.25Z" style="fill:#263238;"></path><g><path d="M469.09,88.59s-.71,.96-1.69,1.31c-.36,.13-.75,.18-1.15,.07-.83-.22-.85-.99-.7-1.64,.12-.54,.37-1,.37-1,0,0,1.22,1.14,3.17,1.26Z" style="fill:#263238;"></path><path d="M467.4,89.9c-.36,.13-.75,.18-1.15,.07-.83-.22-.85-.99-.7-1.64,.89,.09,1.78,.7,1.85,1.57Z" style="fill:#ff9abb;"></path></g></g><g><path d="M447.33,83.78c3.6-.03,3.8-8.28,3.8-8.28,0,0,6.09-1.11,8.63-5.24,0,0-1.7,3.58-4.09,5.04-.4,.25,11.96-.96,13.17-10.43,0,0,1.78,9.36,7.41,11.3,.27,.09-.96-7.11-3.08-9.96-2.13-2.85-3.03-3.63-3.03-3.63,0,0-5.35-4.49-12.95-3.41-7.6,1.08-12.6,9.04-13.19,12.32-1.16,6.44,1.64,12.3,3.35,12.29Z" style="fill:#263238;"></path><path d="M456.06,75.51c6.74-.27,12.12-4.56,12.72-11.45,.01-.17,.28-.17,.3,0,.88,6.99-6.69,12.09-13.08,11.56-.15-.01-.1-.11,.06-.12Z" style="fill:#263238;"></path><path d="M447.35,83.4c3.66-1.86,4.26-5.53,4.55-9.26,0-.11,.2-.11,.2,0,.04,3.66-.65,8.14-4.61,9.57-.2,.07-.32-.21-.13-.31Z" style="fill:#263238;"></path><path d="M468.9,63.45s.06-.04,.07,0c.8,3.87,.94,10.39,5.88,11.38,.13,.03,.11,.22-.03,.2-4.83-.53-6.46-7.59-5.92-11.59Z" style="fill:#263238;"></path></g><g><g><path d="M449.6,83.3s-3.68-5.34-6.1-4.03c-2.42,1.31,.32,9.03,3.15,10.1,2.82,1.07,3.87-1.52,3.87-1.52l-.91-4.55Z" style="fill:#eb9481;"></path><path d="M444.34,81.47s-.05,.06-.02,.08c1.98,.82,3.01,2.66,3.73,4.58-.59-.74-1.39-1.15-2.37-.45-.05,.04,0,.12,.05,.11,.81-.17,1.4-.02,1.94,.63,.39,.46,.65,1.05,.92,1.58,.09,.18,.41,.09,.35-.12,0-.01-.01-.03-.02-.05,.07-2.53-1.88-6.08-4.59-6.36Z" style="fill:#263238;"></path></g><g><path d="M446.97,88.75c.1,.39,.5,.62,.89,.52,.39-.1,.62-.5,.52-.89-.1-.39-.5-.62-.89-.52-.39,.1-.62,.5-.52,.89Z" style="fill:#455a64;"></path><path d="M447.34,88.65c.05,.18,.24,.29,.42,.25,.18-.05,.29-.24,.25-.42s-.24-.29-.42-.25c-.18,.05-.29,.24-.25,.42Z" style="fill:#263238;"></path></g><path d="M445.7,87.85c.07,.28,.36,.44,.63,.37s.44-.36,.37-.63c-.07-.28-.35-.44-.63-.37-.28,.07-.44,.36-.37,.63Z" style="fill:#455a64;"></path></g></g></g></g></g></g></g><g id="freepik--Character_4--inject-285"><g><g><g><polygon points="676.93 303.96 676.93 423.8 642.51 423.8 642.51 452.85 613.45 423.8 458.74 423.8 458.74 303.96 676.93 303.96" style="fill:#fff;"></polygon><path d="M676.93,303.96c-.13,.69,.68,119.82,.58,120.42h-.58l-34.42,.11,.69-.69,.09,29.05v1.88l-1.33-1.33-29.11-28.99c3.27,.77-154.83,.09-154.1,.37h-.98v-.98l.12-119.84v-.86h.85c54.4,.18,163.82,.54,218.19,.86h0Zm0,0c-54.38,.33-163.83,.68-218.19,.85l.85-.85,.12,119.84-.98-.98c.36,0,154.74,.11,155.07,.11l.25,.25,28.99,29.11-1.33,.55,.09-29.05v-.69h.69l34.42,.11-.58,.58,.58-119.84h0Z" style="fill:#263238;"></path></g><g><circle cx="519.27" cy="363.88" r="9.73" transform="translate(-105.21 473.76) rotate(-45)" style="fill:#263238;"></circle><circle cx="567.84" cy="363.88" r="9.73" transform="translate(-95.73 243.38) rotate(-22.36)" style="fill:#263238;"></circle><circle cx="616.4" cy="363.88" r="9.73" transform="translate(91.76 850.81) rotate(-73.42)" style="fill:#263238;"></circle></g></g><g><g><g><path d="M652.46,192.38c-17.67,16.86-38.65,33.23-51.77,31.84-10.15-1.08-25.49-34.09-29.56-43.98-1.47-3.56,27.31-11.63,29.56-8.18,4.25,6.5,8.61,21.7,10.53,21.94,2.01,.25,21.91-8.26,39.65-15.09,10.75-4.14,13.83,1.79,1.59,13.47Z" style="fill:#ad6359;"></path><g><path d="M576.49,187.38s-7.76-8.48-12.58-14.26c-2.69-3.23-6.8-9.17-7.69-12.44-1.33-4.9-3.77-26.23,1.39-26.93,4.67-.64,4.44,17.95,4.44,17.95,0,0-1.42-18.78,4.34-18.51,5.76,.27,2.71,21.24,2.71,21.24,0,0-1.03-19.33,4.87-18.11,4.46,.92,2.76,20.07,2.76,20.07,0,0-.77-16.62,3.85-15.87,5.11,.83,4.65,18.6,4.65,18.6,11.44,3.88,15.91,12.73,17.68,18.09,.41,1.25-26.42,10.18-26.42,10.18Z" style="fill:#ad6359;"></path><g><path d="M562.08,157.33c-2.11-13.75,1.08-21.14,1.03-20.93-1.06,5.04-1,12.97-.95,15.19,.05,2.21-.05,3.53,0,5.74,0,.06-.08,.05-.08,0Z" style="fill:#263238;"></path><path d="M570.12,158.18c-1.42-6.45-.91-14.14-.32-16.76,.05-.21,.12-.14,.12,.08-.01,2.82,.15,13.88,.27,16.69,0,.04-.06,.04-.07,0Z" style="fill:#263238;"></path><path d="M576.99,159.38c-.84-5.86-.62-8.57,.13-12.99,.04-.21,.15-.1,.15,.12-.13,4.32-.25,7.7-.13,12.85,0,.08-.14,.11-.15,.02Z" style="fill:#263238;"></path></g></g></g><g><path d="M603.46,174.79l-30.66,16.34s14.84,34.79,26.98,35.76c12.14,.98,43.54-22.2,56.82-39.16,9.19-11.73,1.06-12.1-8.93-8.19-9.98,3.91-35.79,13.25-36.6,12.71s-7.61-17.47-7.61-17.47Z" style="fill:#c7c7c7;"></path><path d="M578.79,197.58c4.38-2.2,22-11.86,25.66-14.2,.25-.16,.21-.36-.07-.23-13.3,6.28-21.48,11.88-25.67,14.25-.1,.06-.03,.23,.08,.18Z" style="fill:#263238;"></path><path d="M656.6,187.74c-13.27,16.96-44.67,40.14-56.81,39.15-1.24-.1-2.5-.55-3.78-1.29l61.76-48.24c3.62,.38,4.34,3.33-1.17,10.38Z" style="opacity:.1;"></path></g></g><g><g><g><path d="M405.81,302.85c2.59,1,77.79,2.36,80.73,.68,.32-.19,.23-3.51,1.34-12.09,.06-.41,1.77-2,4.45-4.25,10.06-8.43,33.69-26.2,33.69-26.2l-36.85-30.85-37.04,33.99-9.46,9.29s-30.72,16.59-33.77,18.78c-3.02,2.2-5.68,9.65-3.09,10.64Z" style="fill:#ad6359;"></path><path d="M405.81,302.84c2.59,1,77.79,2.36,80.73,.69,.32-.19,.23-3.51,1.34-12.1,.05-.41,1.77-2,4.45-4.25,3.5-2.93,5.16-4.27,10.36-8.32l-47.71-17.54-2.86,2.81-9.45,9.3s-30.73,16.58-33.76,18.78c-3.02,2.19-5.68,9.64-3.09,10.64Z" style="fill:#ebebeb;"></path></g><g><path d="M400.62,303.88c2.61,.91,82.73,1.78,85.62,0,.68-.42,1.3-5.07,1.8-11.45,.06-.8,8.18-7.29,9.29-8.49l-49.1-16.54-6.2,5.83s-36.13,16.81-39.08,19.1c-2.94,2.29-4.93,10.62-2.32,11.53Z" style="fill:#D90368;"></path><g><path d="M401.74,300.89c12.59-.16,68.42,.37,80.88,1.17,.1,0,.1,.08,0,.08-12.47,.43-68.3-.51-80.88-1.04-.27-.01-.26-.2,0-.21Z" style="fill:#263238;"></path><g><path d="M438.02,273.79c4.96-.87,11.01-.04,14.75,3.54,.15,.14-.05,.34-.21,.29-4.87-1.6-9.42-2.64-14.53-3.2-.36-.04-.37-.56-.01-.63Z" style="fill:#263238;"></path><path d="M434.43,275.9c4.96-.87,11.01-.03,14.75,3.54,.15,.14-.05,.34-.21,.29-4.87-1.6-9.42-2.64-14.53-3.2-.36-.04-.37-.56-.01-.63Z" style="fill:#263238;"></path><path d="M430.83,278.01c4.96-.87,11.01-.04,14.75,3.54,.15,.14-.05,.34-.21,.29-4.87-1.6-9.42-2.64-14.53-3.2-.36-.04-.37-.56-.01-.63Z" style="fill:#263238;"></path><path d="M427.23,280.13c4.96-.87,11.01-.04,14.75,3.54,.15,.14-.05,.34-.21,.29-4.87-1.6-9.42-2.64-14.53-3.2-.36-.04-.37-.56-.01-.63Z" style="fill:#263238;"></path><g><path d="M431.15,269.31c3.47,2.76,8.02,3.93,12.09,5.49,.42,.16,.76-.23,.78-.61,.08-.01,.15-.07,.12-.18-1.3-4.15-4.18-8.58-7.49-11.43-2.05-1.76-5.66-3.01-7.63-.35-1.87,2.51,.11,5.46,2.14,7.08Zm-1.21-4c-.81-5.44,4.99-2.52,6.45-1.16,.94,.87,1.78,1.88,2.59,2.87,1.69,2.08,3.06,4.35,4.52,6.58-1.95-.89-3.96-1.6-5.95-2.42-2.36-.97-7.17-2.86-7.61-5.86Z" style="fill:#263238;"></path><path d="M460.76,266.66c-1.16-3.1-4.97-2.91-7.43-1.78-3.98,1.82-7.97,5.27-10.37,8.9-.06,.09,0,.17,.06,.2-.09,.37,.13,.84,.58,.8,4.35-.37,9.04-.23,13.14-1.92,2.39-.99,5.12-3.27,4.02-6.21Zm-10.68,6.22c-2.13,.23-4.26,.36-6.39,.67,2.03-1.73,3.97-3.54,6.17-5.07,1.05-.73,2.14-1.46,3.29-2.03,1.78-.9,8.16-2.1,5.87,2.91-1.26,2.76-6.4,3.24-8.94,3.52Z" style="fill:#263238;"></path></g></g></g></g></g><g><path d="M451.6,262.14l46.39,24.04s47.32-39.74,51.75-40.07c4.3-.31,69.44,43.79,102.17,43.92,33.9,.14,35.61-35.37,35.61-35.37l-49.45-11.36c-35.65-17.57-72.78-49.12-97.06-46.18-26.37,3.2-89.41,65.01-89.41,65.01Z" style="fill:#455a64;"></path><g><path d="M462.93,256.02c7.83,3.87,5.63,2.65,13.42,6.61,3.81,1.93,22.99,11.61,26.25,14.01,.07,.05,0,.18-.08,.15-3.83-1.28-22.8-11.37-26.58-13.38-7.72-4.09-5.46-3-13.13-7.17-.14-.08-.04-.29,.11-.21Z" style="fill:#263238;"></path><path d="M506.2,275.09c9.07-8,37.78-30.03,38.99-31,.97-.78,1.95-1.79,3.09-2.32,.97-.45,1.93-.2,2.86,.23,1.37,.64,2.72,1.34,4.08,2.01,2.68,1.31,5.36,2.62,8.04,3.92,10.39,5.07,20.73,10.28,31.2,15.18,10.07,4.72,17.26,9.16,27.78,12.78,10.46,3.61,21.27,6.35,32.27,7.69,1.36,.17,2.71,.31,4.07,.43,.1,0,.1,.16,0,.16-10.8-.53-21.44-2.73-31.76-5.91-10.42-3.2-17.49-7.36-27.39-11.92-10.26-4.72-20.36-9.77-30.48-14.79-5.34-2.65-10.66-5.33-16.02-7.95-1.21-.59-2.94-1.88-4.33-1.24-.6,.27-1.1,.76-1.6,1.18-.59,.49-1.19,.99-1.78,1.48-2.29,1.91-37.71,29.28-38.91,30.18-.09,.07-.21-.05-.12-.13Z" style="fill:#263238;"></path></g></g></g><g><path d="M688.22,257.6s4.46,32.24-11.99,44.29c-16.45,12.05-133.81,6.58-151.44,.22-17.62-6.36-17.21-35.12,2.49-41.13,18.74-5.71,97.65-6.14,99.62-6.85,.49-.18-6.83-4.91-6.79-5.18l18.12-4.88,49.99,13.53Z" style="fill:#455a64;"></path><g><path d="M663.92,255.98c.03-.14,.24-.08,.23,.05-.14,3.62,1.08,7.48,3.36,10.31,2.62,3.24,6.59,5.14,10.17,7.11,.34,.19,.06,.73-.3,.61-2.2-.74-4.36-1.78-6.34-2.99-1.81-1.1-3.47-2.45-4.71-4.19-2.28-3.2-3.19-7.03-2.42-10.89Z" style="fill:#263238;"></path><path d="M628.31,250.8c.85-1.01,1.77-1.97,2.65-2.95,2.09-2.32,4.18-4.65,6.37-6.88,.21-.21,.59,.11,.39,.34-1.48,1.8-3.04,3.55-4.57,5.3-.79,.9-1.58,1.8-2.37,2.69-.74,.83-1.66,1.66-2.22,2.63-.58,1.01,.11,1.91,1.17,2.06,.95,.13,1.84-.32,2.59-.86,1.7-1.22,3.07-2.99,4.5-4.5,.88-.92,1.75-1.84,2.64-2.75,.95-.97,1.95-1.88,2.89-2.85,.06-.06,.17,.03,.12,.1-.83,1.06-1.6,2.18-2.44,3.24-.83,1.06-1.68,2.12-2.53,3.16-.81,.99-1.65,1.96-2.51,2.9-.73,.8-1.56,1.58-2.52,2.11-1.55,.85-4.21,.95-4.95-1.05-.37-.99,.17-1.96,.79-2.7Z" style="fill:#263238;"></path><path d="M527.24,302.3c6.13,.32,12.25,.88,18.38,1.22,6.08,.34,12.17,.57,18.25,.72,12.23,.3,24.46,.24,36.68-.19,12.35-.44,25.68-1.22,37.98-2.5,5.88-.61,11.84-1.09,17.67-2.14,5.26-.95,10.07-2.96,14.11-6.62,8.19-7.42,11.65-18.62,13.28-29.38,.22-1.44,.41-2.89,.57-4.34,.01-.1,.16-.09,.15,0-1.09,11.05-3.2,22.54-10.47,31.21-3.14,3.75-7.08,6.78-11.64,8.43-5.56,2.01-11.66,2.32-17.47,2.91-12.35,1.25-25.73,2.09-38.13,2.63-12.47,.55-24.96,.73-37.44,.49-12.48-.24-24.96-.83-37.4-1.86-1.52-.13-3.03-.27-4.55-.45-.09-.01-.08-.14,0-.14Z" style="fill:#263238;"></path><path d="M567.5,256.49c3.88-.44,7.75-.86,11.65-1.13,3.93-.28,7.87-.49,11.81-.7,7.79-.4,15.6-.72,23.4-.83,4.43-.06,8.85,.07,13.28,.27,.14,0,.12,.21-.01,.22-7.81,.44-15.62,.67-23.44,.93-7.8,.26-15.6,.68-23.39,1.16-4.42,.27-8.84,.45-13.26,.66-.32,.02-.37-.54-.04-.57Z" style="fill:#263238;"></path><path d="M619.22,248.53c3.09,1.4,5.97,3.19,8.78,5.09,2.77,1.87,5.6,3.82,8.08,6.07,.07,.06-.03,.15-.1,.12-2.99-1.51-5.84-3.36-8.67-5.14-2.84-1.79-5.67-3.61-8.28-5.72-.18-.15-.05-.52,.2-.41Z" style="fill:#263238;"></path></g></g><g><g><g><path d="M688.43,260.8l-62.47-18.63,7.13-22.54s-4.71-7.35-2.32-14.07c2.14-6,17.24-23.5,20.25-25.79,5.15-3.93,14.12-4.96,18.77,.99,19.18,24.52,18.64,80.04,18.64,80.04Z" style="fill:#ebebeb;"></path><path d="M668.63,179.5l-9.9-2.83c.19-.03,.38-.05,.58-.06h.01l8.92,2.54c.14,.11,.27,.22,.39,.35Zm5.18,7.32l-23.28-6.65c-.06,.05-.12,.11-.19,.17l23.62,6.75c-.04-.09-.09-.18-.15-.27Zm3.46,7.05l-31.31-8.94c-.05,.06-.11,.13-.17,.19l31.59,9.02c-.02-.09-.06-.18-.11-.27Zm2.59,6.81l-38.11-10.87-.15,.18,38.34,10.94c-.03-.08-.06-.17-.08-.25Zm2.01,6.64l-44.08-12.57c-.05,.06-.1,.12-.14,.18l44.28,12.64c-.02-.08-.04-.17-.06-.25Zm1.61,6.53l-49.38-14.09c-.05,.06-.09,.13-.13,.19l49.56,14.14c-.02-.08-.04-.16-.05-.24Zm1.3,6.44l-53.77-15.34c-.03,.07-.06,.14-.08,.21l53.89,15.37c-.01-.08-.03-.16-.04-.24Zm1.05,6.37l-55.7-15.89c.01,.07,.01,.15,.02,.23l55.72,15.9c-.01-.08-.02-.16-.04-.24Zm.85,6.31l-54.8-15.63c.05,.09,.09,.17,.12,.26l54.71,15.61-.03-.24Zm.67,6.26l-55.46-15.82-.07,.21,55.55,15.85c-.01-.08-.01-.16-.02-.24Zm.5,6.21l-57.72-16.47-.07,.22,57.81,16.49c0-.08-.01-.16-.02-.24Zm.36,6.17l-59.84-17.06-.07,.2,59.92,17.1c-.01-.08-.01-.16-.01-.24Zm-61.6-11.5l-.07,.21,61.86,17.65c.01-.08,.01-.15,0-.23l-61.79-17.63Z" style="fill:#263238;"></path></g><g><path d="M642.51,217c2.81,1.2,5.61,2.51,8.21,4.12,1.3,.8,2.55,1.65,3.79,2.54,.62,.44,1.25,.86,1.88,1.28,.65,.43,1.36,.86,2.1,1.11,.07,.02,.03,.12-.03,.1-.73-.21-1.43-.41-2.14-.71-.67-.29-1.31-.65-1.93-1.02-1.32-.8-2.61-1.66-3.93-2.47-2.65-1.64-5.31-3.28-8.07-4.72-.13-.07-.02-.29,.11-.23Z" style="fill:#263238;"></path><path d="M634.5,217.34c2.47,.5,4.95,1.13,7.34,1.9,1.2,.39,2.38,.85,3.54,1.34,.56,.23,1.11,.48,1.66,.73,.6,.28,1.17,.63,1.78,.9,.06,.03,.03,.13-.03,.1-.58-.23-1.2-.37-1.8-.57-.6-.2-1.19-.41-1.79-.61-1.2-.4-2.39-.79-3.59-1.21-2.39-.83-4.77-1.64-7.18-2.38-.13-.04-.06-.22,.07-.2Z" style="fill:#263238;"></path></g><g><path d="M664.48,177.26s-4.06,20.4-7.28,37.19c-3.22,16.8-8.65,76.43-9.97,87.13-1.32,10.71,38.35,52.85,47.73,51.19,9.38-1.66,16.02-28.18,4.26-90.58-3.09-16.4-14.03-57.23-23.95-74.75-6.94-12.26-10.79-10.18-10.79-10.18Z" style="fill:#c7c7c7;"></path><g style="opacity:.1;"><path d="M659.87,266.69c2.1,1.76,4.19,3.58,6.15,5.49,1.83,1.78,3.65,3.56,5.57,5.25,1.88,1.65,3.83,3.21,5.92,4.58,2.15,1.4,4.4,2.45,6.81,3.31,.09,.03,.08,.18-.02,.17-8.01-.74-14.5-7.01-19.69-12.6-1.75-1.89-3.44-3.88-5.06-5.88-.18-.22,.1-.5,.32-.31Z"></path><path d="M659.71,270.06c2.34,3.15,4.82,6.14,7.74,8.78,2.85,2.58,6.04,4.77,9.42,6.61,1.96,1.07,4,2.02,6.05,2.88,.13,.05,.08,.23-.06,.21-7.82-1.47-14.95-6.35-19.77-12.6-1.39-1.8-2.62-3.7-3.53-5.79-.04-.1,.08-.17,.15-.08Z"></path><path d="M659.5,274.37c-.43,5.46-.4,14.96-.17,17.03,.21,1.89,.52,3.81,1.45,5.49,1.75,3.15,5.13,5.59,8.34,7.07,3.01,1.4,6.91,2.17,9.9,.31,1.81-1.13,2.28-3.3,2.78-5.23,.61-2.38,1.09-4.8,1.33-7.25,.01-.11,.18-.11,.17,0-.12,2.23-.28,4.46-.6,6.67-.29,1.99-.5,4.21-1.79,5.85-2.3,2.92-6.5,3.1-9.82,2.2-2.05-.55-3.98-1.57-5.73-2.77-1.64-1.13-3.22-2.43-4.48-3.99-1.25-1.55-1.9-3.35-2.5-5.26-.9-2.89-.3-15.04,.98-20.13,.02-.08,.14-.08,.13,0Z"></path></g></g><path d="M652.73,178.65c-6.11,5.57-18.36,24.75-19.86,29.05-1.88,5.43,.21,11.93,.21,11.93l-7.13,22.54,5.47-22.33s-3.88-6.01-2-13.45,17.3-23.02,19.43-25.23c2.13-2.22,3.86-2.5,3.86-2.5Z" style="fill:#c7c7c7;"></path></g><g><g><path d="M664.22,178.96c-.37,1.14-6.52,8.23-11.81,7.55-1.72-.23-.91-9.68-.91-9.68l-.1-.71-1.39-9.96,12.09-6.44,1.74-.84s.53,19.6,.39,20.09Z" style="fill:#ad6359;"></path><path d="M663.83,158.87s.13,4.63,.25,10.07c-3.08,4.76-11.26,7.26-12.69,7.17l-1.39-9.96,12.09-6.44,1.74-.84Z" style="fill:#263238;"></path></g><g><path d="M676.63,157.78c.85,.43,1.76,.76,2.71,.43,.28-.1,.54-.26,.82-.35,.46-.16,.87-.08,1.32,.03,.49,.13,.97,.24,1.48,.28,1.54,.12,3.27-.3,4.04-1.74,1.98,1.13,4.66,.64,6.14-1.12,.19-.23,.37-.49,.51-.75,.2-.37,.29-.88,.65-1.14,.34-.26,.88-.31,1.29-.43,.34-.1,.67-.23,.98-.4,.81-.47,1.41-1.51,.97-2.37,1.26-.09,2.17-1.23,2.54-2.4,.48-1.52,.24-3.18-.59-4.53,1.62-1.18,1.98-3.65,.75-5.23,1.39-1.4,1.16-3.89-.47-5,.53-1.59,.24-3.23-.76-4.58-.22-.3-.34-.57-.4-.86,.39-1.05,.5-2.16-.07-3.2-.58-1.06-1.79-1.66-2.97-1.44-.13-.43-.5-1.31-1.46-2.27-.95-.95-2.34-1.38-3.63-1.02-1.36-2.93-4.93-4.02-7.68-2.35-.5-1.47-2.02-2.34-3.54-2.42-1.84-.1-3.51,.93-4.9,2.05-.68-1.11-2.05-1.65-3.32-1.14-.95,.38-1.58,1.28-1.76,2.26-1.1,.06-2.24,.34-2.99,1.18-.65,.73-.89,1.77-.49,2.65-2.69,.39-4.05,3.46-2.57,5.7-1.66-.09-3.33,.73-4.18,2.2-.91,1.56-.69,3.59,.39,4.99-1.48,.47-2.49,1.89-2.63,3.44-.16,1.84,.87,3.56,2.22,4.74-1.06,1.16-1.25,2.93-.56,4.34,.63,1.29,1.85,2.12,3.19,2.53-1.48,.08-2.89-.39-3.72-1.86-.96-1.72-.33-3.75,1.04-5.04,.01-.01,0-.03-.02-.02-1.64,1.24-2.34,3.36-1.32,5.24,.99,1.81,2.96,2.33,4.81,1.95-.64,1.62-.37,3.55,.8,4.87,1.19,1.35,3.11,1.82,4.81,1.35,1.27,3.78,6.4,5.19,8.59,1.43Zm21.88-30.73s0-.08,0-.13c-.01-.34-.05-.68-.14-1.01-.21-.73-.65-1.4-1.24-1.89-.28-.24-.6-.43-.93-.58-.19-.08-.58-.19-.58-.19,0,0-.01-.06-.03-.15,1.29,.03,2.38,.73,2.83,1.96,.25,.67,.23,1.33,.11,1.98Zm-28.89-8.98h-.02c.15-.86,.57-1.62,1.49-2.01,1.31-.55,2.3,.08,3.1,1.01-.02,.02-.05,.04-.07,.06-.89-.79-2.24-.9-3.28-.31-.54,.3-.94,.74-1.22,1.25Zm-.42,39.65c1.95,1.87,5.14,1.98,7.22-.05l.04,.02c-2.23,2.99-5.25,2.24-7.26,.03Z" style="fill:#263238;"></path><path d="M641.3,146.98c-7.18,16.13,1.67,22.25,5.15,23.79,3.16,1.4,14.09,5.77,22.9-9.53,8.81-15.3,3.58-23.74-3.48-27.32-7.05-3.59-17.39-3.07-24.57,13.06Z" style="fill:#ad6359;"></path><g><path d="M644.68,145.36c.41,.07,.8,.07,1.21,.1,.47,.03,.83,.11,1.26-.13,.23-.13,.32-.5,.22-.73-.24-.54-.8-.73-1.36-.79-.61-.07-1.09,.03-1.61,.36-.5,.32-.26,1.1,.28,1.19Z" style="fill:#263238;"></path><path d="M656.01,149.29c-.38-.18-.69-.41-1.05-.63-.4-.24-.74-.4-.95-.84-.11-.24,.03-.6,.25-.72,.51-.3,1.08-.12,1.57,.15,.53,.3,.87,.66,1.1,1.23,.22,.55-.43,1.04-.92,.81Z" style="fill:#263238;"></path><g><g><path d="M652.12,151.98s.07,.09,.05,.13c-.45,1.11-.78,2.47,.1,3.22,.03,.02,0,.08-.03,.06-1.18-.64-.72-2.43-.12-3.41Z" style="fill:#263238;"></path><path d="M653.56,151.18c1.86,.53,.66,4.22-1.06,3.73-1.7-.49-.5-4.17,1.06-3.73Z" style="fill:#263238;"></path></g><path d="M654.22,151.61c.25,.31,.45,.78,.83,.95,.44,.19,.9-.08,1.32-.36,.04-.03,.06,.01,.05,.06-.22,.71-.73,1.35-1.52,1.21-.72-.13-1.02-.92-.96-1.68,0-.14,.19-.3,.29-.17Z" style="fill:#263238;"></path></g><g><g><path d="M645.7,149.43s-.11,.03-.12,.08c-.28,1.17-.8,2.46-1.96,2.56-.04,0-.05,.06,0,.07,1.33,.17,2-1.55,2.08-2.7Z" style="fill:#263238;"></path><path d="M645,147.93c-1.82-.66-3,3.04-1.31,3.65,1.66,.6,2.84-3.1,1.31-3.65Z" style="fill:#263238;"></path></g><path d="M644.15,147.93c-.35,.1-.76,.37-1.11,.28-.41-.1-.58-.6-.72-1.06-.01-.05-.05-.03-.07,.02-.24,.7-.25,1.51,.39,1.86,.58,.32,1.23-.14,1.62-.79,.07-.12,.04-.35-.11-.31Z" style="fill:#263238;"></path></g><path d="M649.28,161.67c-.34,.21-.71,.52-1.15,.45-.42-.06-.85-.36-1.19-.59-.03-.02-.08,0-.06,.05,.2,.52,.77,.95,1.34,.99,.55,.03,.92-.36,1.16-.82,.03-.06-.05-.11-.1-.08Z" style="fill:#263238;"></path><path d="M645.42,155.72s-.75,1.65-.99,2.46c-.02,.08,.16,.17,.43,.27,.01,0,.02,.02,.03,.01,1.37,.65,2.96,.58,4.18-.33,.08-.06,0-.18-.09-.15-1.3,.47-2.55,.32-3.82-.04,0-.24,1.38-2.78,1.25-2.83-.43-.17-1.4-.13-1.97-.13,1.46-3.48,3.47-6.7,4.87-10.19,.05-.13-.12-.22-.2-.12-2.34,3.23-4.11,7.2-5.71,10.76-.2,.44,1.65,.33,2.01,.29Z" style="fill:#263238;"></path><g><path d="M645.41,158.5s.49,1.2,1.42,1.82c.34,.23,.73,.39,1.19,.38,.93,0,1.16-.8,1.17-1.53,.01-.6-.12-1.15-.12-1.15,0,0-1.58,.87-3.65,.47Z" style="fill:#263238;"></path><path d="M646.83,160.32c.34,.23,.73,.39,1.19,.38,.93,0,1.16-.8,1.17-1.53-.96-.14-2.05,.26-2.36,1.15Z" style="fill:#ff99ba;"></path></g></g><g><path d="M666.53,162.12c-3.14-1.02-.71-8.16-.71-8.16,0,0-9.9-5.69-8.04-17.41,0,0-5.07,4.09-13.07,3.95,0,0,5.73-11.06,15.7-9.06,0,0,12.98,1.17,15.09,12.9,2.1,11.73-6.85,18.46-8.96,17.78Z" style="fill:#263238;"></path><path d="M658.13,135.79c-.78,1.56-1.17,3.31-1.24,5.07-.07,1.76,.19,3.56,.85,5.22,.13,.43,.37,.81,.55,1.21l.29,.6c.11,.19,.24,.38,.36,.56,.25,.37,.48,.74,.74,1.1,.28,.34,.58,.67,.87,1,.15,.16,.29,.33,.44,.49l.49,.44,.98,.87c.71,.52,1.44,1,2.17,1.46-.63-.61-1.3-1.14-1.91-1.75l-.88-.93-.44-.46c-.14-.16-.26-.34-.39-.51-.25-.34-.51-.68-.77-1.01-.24-.35-.44-.72-.66-1.08l-.33-.54-.27-.57c-.16-.39-.39-.75-.51-1.15-.64-1.56-.91-3.25-.98-4.94-.03-.85,.02-1.7,.12-2.55,.09-.85,.27-1.69,.51-2.53Z" style="fill:#263238;"></path></g><g><path d="M665.11,161.08s5.44-3.95,7.35-1.84c1.92,2.11-3.43,8.72-6.56,8.8-3.13,.08-3.26-2.82-3.26-2.82l2.46-4.14Z" style="fill:#ad6359;"></path><path d="M670.88,161.1s.03,.08-.01,.08c-2.22,.12-3.86,1.57-5.23,3.19,.83-.52,1.75-.64,2.48,.38,.04,.05-.04,.12-.09,.09-.74-.45-1.36-.51-2.12-.05-.54,.32-.99,.8-1.45,1.23-.15,.14-.43-.06-.3-.24l.03-.04c.81-2.5,3.93-5.3,6.68-4.63Z" style="fill:#263238;"></path></g><g><g><path d="M667.73,167.3c-.32,.77,2.96-1.01,3.22-1.36,.26-.35,2.25-.92,2.94-1.54,.69-.62,2.33-2.58,2.59-3.1,.27-.52,1.77-1.5,2.13-2.46,.35-.96,3.16-9.64-.43-17.51-3.59-7.87-8.55-10.14-8.55-10.14,0,0-3.33-1.96-7.62-3.23-4.29-1.27-13.97,6.3-14.07,6.51-.1,.21-.06,.98-.48,1.49-.42,.52-1.28,.89-1.17,1.57,.12,.68-1.27,1.83-1.48,2.44-.21,.61-.11,.82-.37,1.2-.26,.37,5.66-9.53,19.86-8.46,0,0,10.4,18.05,3.43,34.59Z" style="fill:#D90368;"></path><path d="M644.5,141.06s-.04,.07-.06,.11c-.02,.03,0,0,.06-.11Z" style="fill:#D90368;"></path><path d="M644.5,141.06s-.04,.07-.06,.11c-.02,.03,0,0,.06-.11Z" style="fill:#D90368;"></path><path d="M654.48,132.25c-.38,.52-1.11,.62-1.63,.24-.39-.29-.55-.79-.43-1.23,0,0,0,0,0,0,.44-.28,.9-.56,1.38-.83h0c.15,.03,.3,.1,.43,.2,.52,.38,.62,1.11,.24,1.63Zm5.5-.45c-.52-.38-1.24-.28-1.63,.24-.2,.27-.27,.61-.21,.91,.74-.12,1.5-.21,2.3-.26,0-.34-.17-.67-.47-.89Zm-9.35,2.98c-.52-.38-1.24-.28-1.63,.24-.35,.48-.29,1.13,.13,1.53,.58-.4,1.22-.8,1.91-1.18-.07-.23-.21-.44-.41-.59Zm24.61,1.54c-.18,.08-.33,.2-.46,.37-.38,.52-.27,1.24,.24,1.62,.46,.34,1.09,.29,1.5-.09-.42-.7-.86-1.33-1.28-1.9Zm-2.61,9.39c-.52-.38-1.24-.27-1.63,.24-.38,.52-.27,1.24,.24,1.63,.52,.38,1.24,.27,1.63-.24,.38-.52,.27-1.24-.24-1.63Zm-7.82-16.78h0c-.65-.25-1.35-.51-2.08-.74h0c-.38,.52-.28,1.25,.24,1.63,.52,.38,1.24,.27,1.63-.24,.14-.2,.22-.42,.23-.65Zm4.5,3.69c-.52-.38-1.24-.27-1.63,.24-.38,.52-.27,1.24,.24,1.63,.52,.38,1.24,.27,1.63-.24,.38-.52,.27-1.24-.24-1.63Zm1.15,6.41c-.52-.38-1.24-.27-1.63,.24-.38,.52-.27,1.24,.24,1.63,.52,.38,1.24,.27,1.63-.24,.38-.52,.27-1.24-.24-1.63Zm7.7,4.26c-.52-.38-1.24-.27-1.63,.24-.38,.52-.27,1.24,.24,1.63,.52,.38,1.24,.27,1.63-.24,.38-.52,.27-1.24-.24-1.63Zm-3.02,8.31c-.52-.38-1.24-.27-1.63,.24s-.27,1.24,.24,1.63c.52,.38,1.24,.27,1.63-.24,.38-.52,.27-1.24-.24-1.63Zm-5.45,11.95c-.19-.14-.39-.21-.61-.22-.19,.72-.41,1.45-.66,2.17,.5,.29,1.15,.16,1.51-.32,.38-.52,.28-1.25-.24-1.63Zm.66-9.72c-.07-.05-.15-.1-.23-.13,.02,.7,.03,1.41,0,2.13,.18-.08,.34-.2,.47-.37,.38-.52,.27-1.24-.24-1.62Zm9.63-4.01c-.44-.11-.93,.05-1.21,.44-.38,.52-.27,1.24,.24,1.62,.27,.2,.6,.27,.91,.21,.05-.72,.08-1.48,.07-2.27Zm-5.8,8.57c-.52-.38-1.24-.27-1.63,.24-.38,.52-.27,1.24,.24,1.63,.52,.38,1.24,.27,1.63-.24,.38-.52,.27-1.24-.24-1.63Zm.63,4.34c-.2,.28-.27,.62-.2,.93,.39-.43,.82-.95,1.18-1.39-.37-.02-.74,.15-.98,.47Zm4.52-6.53c-.49-.21-1.07-.07-1.4,.37-.38,.52-.28,1.24,.24,1.63,.17,.13,.37,.2,.57,.22,.15-.46,.37-1.23,.59-2.22Z" style="fill:#fff; opacity:.3;"></path><g><path d="M670.95,165.94c.41-.72,.65-1.51,.91-2.29,.26-.78,.49-1.57,.71-2.37,.45-1.59,.88-3.18,1.25-4.78,.09-.4,.19-.8,.25-1.2,.05-.38,0-.79-.03-1.2-.09-.81-.24-1.62-.38-2.44-.14-.81-.3-1.62-.46-2.43l-.49-2.43c.44,1.59,.83,3.2,1.17,4.81,.17,.81,.32,1.62,.42,2.45,.05,.41,.1,.83,.05,1.27-.06,.42-.15,.82-.24,1.23-.39,1.61-.82,3.2-1.31,4.78-.25,.79-.51,1.57-.79,2.35-.14,.39-.3,.77-.46,1.15-.16,.38-.34,.76-.58,1.09Z" style="fill:#050400; opacity:.1;"></path><path d="M676.13,149.75c.36,.92,.62,1.87,.84,2.83,.22,.96,.37,1.94,.45,2.93,.06,.99,.09,1.98-.06,2.97-.14,.98-.4,1.95-.88,2.82,.08-.23,.16-.46,.25-.69,.05-.11,.08-.23,.1-.35l.08-.36c.03-.12,.06-.24,.09-.35l.05-.36c.03-.24,.08-.48,.09-.72l.05-.73v-.73c.01-.24,0-.49-.01-.73-.01-.24-.02-.49-.04-.73-.06-.97-.21-1.94-.38-2.91-.08-.48-.18-.96-.29-1.44-.1-.48-.21-.96-.33-1.44Z" style="fill:#050400; opacity:.1;"></path><path d="M647.78,135.53c.69-.64,1.5-1.13,2.28-1.64,.79-.5,1.61-.96,2.43-1.42,.83-.44,1.63-.9,2.52-1.26,.88-.34,1.81-.55,2.74-.62-.46,.09-.91,.2-1.36,.34-.44,.13-.88,.29-1.3,.48-.42,.19-.82,.42-1.24,.64l-1.23,.67-2.45,1.35c-.41,.22-.81,.46-1.22,.69-.4,.23-.81,.47-1.18,.75Z" style="fill:#050400; opacity:.1;"></path><path d="M646.22,137.96c.46-.5,.97-.94,1.49-1.37,.52-.43,1.06-.83,1.63-1.21,.29-.18,.58-.36,.89-.51,.31-.14,.61-.29,.92-.42l.93-.4c.31-.12,.62-.26,.94-.38-.29,.18-.59,.34-.88,.5l-.89,.48c-.3,.16-.6,.31-.9,.46-.29,.15-.57,.33-.85,.51-.56,.36-1.1,.76-1.65,1.14-.27,.19-.55,.39-.82,.59-.27,.19-.54,.4-.81,.6Z" style="fill:#050400; opacity:.1;"></path></g><path d="M677.4,139.76c-2.49,.12-8.17,.34-9.26-.16-.25-.12-.61-.34-1.05-.64-1.42-3.85-2.8-6.24-2.8-6.24-1.78-.13-3.43-.1-4.95,.07-1.05-1.33-2.04-3.25-2.39-3.96,1.9-.81,3.73-1.26,5.06-.87,4.29,1.27,7.62,3.23,7.62,3.23,0,0,4.28,1.96,7.78,8.57Z" style="fill:#050400; opacity:.1;"></path></g><g><g><path d="M665.92,130.64s-2.29-7.15-8.41-9.42c0,0-1.29,6.3,.41,8.91,.85,1.3,5.67,2.94,6.46,2.27,.78-.68,1.54-1.76,1.54-1.76Z" style="fill:#D90368;"></path><path d="M662.34,124.59c-.37,.17-.83,.14-1.18-.12-.44-.32-.58-.89-.39-1.37,.58,.47,1.1,.97,1.57,1.49Zm-4.54,1.3c-.23-.17-.49-.24-.75-.23-.01,.78,.03,1.58,.14,2.32,.33-.02,.64-.18,.85-.46,.38-.52,.28-1.24-.24-1.63Zm6.55,2.05c-.52-.38-1.24-.27-1.63,.24-.38,.52-.27,1.24,.24,1.63,.52,.38,1.24,.27,1.63-.24,.38-.52,.27-1.24-.24-1.63Z" style="fill:#fff; opacity:.3;"></path><path d="M665.92,130.64s-.77,1.07-1.54,1.75c-.03,.03-.07,.06-.12,.07-.04,.03-.1,.04-.16,.06-.04,0-.08,.02-.14,.02-.62,.08-1.68-.15-2.76-.53,.34-.8,.85-1.83,1.35-2.54,.43-.61,1.39-1,2.3-1.25,.75,1.4,1.07,2.43,1.07,2.43Z" style="fill:#050400; opacity:.1;"></path></g><g><path d="M667.25,131.87s9.1,.81,12.85,3.76c0,0-3.43,4-8.1,4.05-2.09,.02-6.97-4.98-6.4-5.93,.57-.95,1.65-1.87,1.65-1.87Z" style="fill:#D90368;"></path><path d="M676.65,138.06c-.38,.52-1.11,.62-1.63,.24-.52-.38-.62-1.11-.24-1.63,.38-.52,1.11-.62,1.63-.24,.52,.38,.62,1.11,.24,1.63Zm-7.34-5.45c-.52-.38-1.24-.27-1.63,.24-.38,.52-.27,1.24,.24,1.63,.52,.38,1.24,.27,1.63-.24,.38-.52,.27-1.24-.24-1.63Zm1.15,6.41c-.16-.12-.35-.19-.54-.22,.27,.18,.53,.34,.79,.47-.07-.09-.15-.18-.25-.25Z" style="fill:#fff; opacity:.3;"></path><path d="M669.3,132.12c-.04,.85-.24,2.04-.87,2.86-.35,.46-.91,.84-1.51,1.15-.94-1.06-1.54-2.02-1.32-2.4,.56-.95,1.65-1.87,1.65-1.87,0,0,.81,.07,2.05,.25Z" style="fill:#050400; opacity:.1;"></path></g><path d="M667.68,134.09c-1.08,1.23-2.96,1.35-4.19,.27s-1.35-2.96-.27-4.19c1.08-1.23,2.96-1.35,4.19-.27,1.23,1.08,1.35,2.96,.27,4.19Z" style="fill:#D90368;"></path></g></g></g></g><g><path d="M676.46,187.74c14.3,24.27,28.17,71.26,21.58,78.42-7.33,7.98-27.21-26-26.7-27.57,.38-1.18-2.78-28.4-5.37-48.27-2.59-19.85,6.95-8.59,10.49-2.58Z" style="fill:#ffc4c0;"></path><g><path d="M671.15,238.58c-.15-2.86-4.71-38.85-5.76-50.14-.95-10.13,1.74-13.51,8.02-5.8,11.57,14.19,31.59,53.82,32.58,71.96,.96,17.48-12.82,15.43-21.95,5.19-7.48-8.38-12.89-21.21-12.89-21.21Z" style="fill:#c7c7c7;"></path><g><path d="M671.72,243.22c-2.08-13.4-3.67-26.88-4.75-40.41,2.09,13.4,3.67,26.88,4.75,40.41h0Z" style="fill:#263238;"></path><path d="M667.75,210.65c-1.08-1.49-1.73-3.21-1.72-5.06,.98,1.56,1.6,3.21,1.72,5.06h0Z" style="fill:#263238;"></path></g></g></g><g><g><path d="M697.78,265.89c-6.63,4.06-18.23,.33-48.32-6.32-4.16-.92-5.57-32.05-1.07-31.3,5.66,.95,27.44,5.87,28.98,6.43,13.05,4.73,24.9,28.44,20.41,31.19Z" style="fill:#ad6359;"></path><g><path d="M652.72,230.54s-10.3-6.32-16.74-7.97c-8.62-2.2-16.98-.56-20.44,.35-7.22,1.88-23.37,11.43-21.44,16.56,1.75,4.65,17.77-5.94,17.77-5.94,0,0-18.12,8.1-14.98,13.31,3.14,5.21,21.04-8.14,21.04-8.14,0,0-18.43,8.74-14.34,13.6,3.09,3.67,19.98-7.51,19.98-7.51,0,0-15.79,7.62-12.77,11.53,3.33,4.32,19.57-5.02,19.57-5.02,9.33,8.65,17.32,8.95,23.02,8.49,1.38-.11-.68-29.25-.68-29.25Z" style="fill:#ad6359;"></path><g><path d="M617.96,230.33c-2.16,.87-4.36,1.75-6.43,2.81-2.08,1.06-4.12,2.2-6.09,3.45-4.83,3.07-7.37,5.75-7.2,5.6,4.14-3.51,11.52-7.43,13.6-8.5,2.07-1.06,4.09-2.23,6.17-3.29,.05-.03,0-.1-.04-.08Z" style="fill:#263238;"></path><path d="M621.94,237.76c-2.71,1.24-5.45,2.36-8.11,3.72-2.65,1.35-5.04,2.86-7.58,4.39-.2,.12-.07,.18,.13,.07,2.61-1.43,5.12-2.54,7.74-3.94,2.61-1.39,5.19-2.89,7.85-4.19,.04-.02,0-.08-.03-.06Z" style="fill:#263238;"></path><path d="M626.5,243.52c-4.24,1.68-8.17,4.13-11.97,6.64-.19,.12-.01,.19,.19,.08,3.94-2.28,7.01-4.1,11.84-6.57,.08-.04,.03-.18-.06-.15Z" style="fill:#263238;"></path></g></g></g><g><path d="M654.64,226.23l10.64,43.91s32.4,.76,37.65-4.31c3.75-3.62-10.7-25.44-24.98-31.15l-23.31-8.46Z" style="fill:#c7c7c7;"></path><path d="M692.4,247.38c-1.25-2.76-6.25-9.31-14.45-12.73-.07-.03-.14,.08-.07,.12,5.86,3.14,12.98,10.12,14.41,12.68,.04,.07,.14,0,.11-.07Z" style="fill:#263238;"></path><path d="M671.75,264.3c-.69-4.31-1.61-8.58-2.54-12.85-.93-4.27-1.86-8.54-2.9-12.79-.59-2.4-1.16-4.8-1.83-7.18-.02-.06-.13-.05-.12,.02,.69,4.3,1.59,8.58,2.5,12.85,.9,4.28,1.86,8.55,2.85,12.81,.56,2.41,1.16,4.8,1.83,7.18,.03,.12,.24,.09,.22-.03Z" style="fill:#263238;"></path><path d="M654.79,225.88c1.67,.34,3.26,.92,4.87,1.48,1.61,.56,3.2,1.14,4.8,1.74,3.17,1.19,10.01,3.36,15.36,6.43,.06,.03-.41,.15-.47,.11-2.47-1.59-22.82-8.4-24.38-9.15,0,.13,0,.26-.01,.4-.01,.09-.14,.15-.19,.05-.12-.23-.16-.47-.26-.71-.08-.2,.06-.39,.28-.35Z" style="fill:#263238;"></path><path d="M663.34,262.69c.77,2.45,1.49,4.92,2.19,7.39l-.24-.19c3.01-.01,6.02-.03,9.03-.1,8.96-.43,18.2-.14,26.84-2.84-2.75,1.28-5.78,1.83-8.75,2.29-5.98,.89-12.04,1.17-18.07,1.25-3.09,.03-6.17,.03-9.25-.1-.62-2.56-1.2-5.12-1.74-7.7h0Z" style="fill:#263238;"></path></g></g></g></g></g></g><g id="freepik--Character_2--inject-285"><g><g><g><g><path d="M316.15,330.37s36.24,29.29,36.27,29.31c6.96,5.56,12.96,10.57,15.83,13.45,.02,.01,.03,.03,.05,.05,1.08,1.08,1.71,1.86,1.74,2.23,0,.03,.02,.05,.01,.08-.25,3.19-43.1,60.11-45.26,61.59-2.16,1.5-6.56-4.56-6.66-8.1-.09-3.55,6.57-32.67,6.57-32.67l-35.95-29.62,27.41-36.31Z" style="fill:#f7a9a0;"></path><path d="M318.11,428.97c.1,3.55,4.5,9.6,6.67,8.11,2.15-1.49,45-58.41,45.26-61.59,0-.02-.01-.05-.01-.07-.04-.39-.66-1.16-1.74-2.24-.01-.02-.02-.04-.05-.05-1.65-1.67-4.38-4.05-7.74-6.84-8.63,16.31-34.07,50.66-37.76,54.33-2.97,2.94-1.82-6.08-.88-11.58-1.8,8.32-3.78,17.99-3.74,19.94Z" style="fill:#263238;"></path></g><g><path d="M296.55,295.47c2.57,12.68,55.18,63.28,55.18,63.28l-36.68,42.34s-74.69-74.56-70.79-102.57c3.39-24.37,39.88-122.37,39.88-122.37h42.09s-32.19,106.86-29.67,119.33Z" style="fill:#37474f;"></path><g><path d="M310.88,391.02c4.87-6.07,3.39-4.39,8.33-10.41,2.42-2.94,18.33-22.26,21.06-24.61,.06-.05,.16,.03,.12,.1-1.83,3.11-18.08,22.14-20.55,25.04-5.06,5.92-3.67,4.16-8.79,10.02-.1,.11-.27-.03-.17-.15Z" style="fill:#263238;"></path><path d="M289.32,291.3c.6-3.17,1.29-6.32,1.96-9.47,1.37-6.44,2.82-12.86,4.34-19.26,3.03-12.7,6.31-25.32,9.89-37.88,3.59-12.6,7.38-25.17,11.75-37.52,.54-1.53,1.1-3.05,1.65-4.57,.04-.12,.22-.06,.18,.06-3.78,12.37-7.68,24.71-11.23,37.15-3.53,12.39-6.8,24.85-9.88,37.36-1.55,6.28-2.99,12.59-4.39,18.9-.69,3.1-1.37,6.21-2.03,9.32-.67,3.15-1.57,6.38-1.76,9.6-.19,3.17,.84,5.98,2.47,8.65,1.58,2.58,3.43,5.01,5.23,7.44,3.6,4.88,37.86,43.05,38.96,44.09,.09,.08-.05,.2-.13,.13-4.6-4.13-33.67-35.59-37.36-40.46-1.83-2.41-3.61-4.85-5.35-7.32-1.63-2.31-3.28-4.66-4.18-7.37-.97-2.91-.68-5.91-.12-8.87Z" style="fill:#263238;"></path></g><path d="M292.78,176.15l4.18,111.53c4.08-27.96,29.26-111.53,29.26-111.53h-33.44Z" style="fill:#263238;"></path></g></g><g><g><path d="M309.46,382.63s-9.09,44.24-9.09,44.28c-.12,8.91-.39,16.72-.9,20.75,0,.02,0,.04,0,.07-.19,1.52-.42,2.49-.7,2.74-.02,.02-.03,.04-.05,.06-2.68,1.76-73.91,2.87-76.41,2.07-2.51-.79-.42-7.98,2.31-10.23,2.75-2.25,29.83-14.87,29.83-14.87l9.53-44.22,45.49-.64Z" style="fill:#f7a9a0;"></path><path d="M222.3,452.58c2.5,.8,73.73-.31,76.41-2.06,.02-.01,.04-.04,.06-.06,.27-.25,.5-1.22,.7-2.74v-.06c.35-2.67,.57-7,.72-12.23-16.7,4.08-62.08,7.77-67.86,6.32-3.22-.81,.86-3.47,5.12-6.16-6.05,2.95-11.67,5.8-12.84,6.77-2.72,2.25-4.81,9.44-2.31,10.22Z" style="fill:#263238;"></path></g><g><path d="M288.19,176.14c.05,.88,4.28,36.94,5.46,37.91,1.33,1.09,8.73,6.04,10.97,7.41,0,0-20.18,62.85-25.53,83.81-7.76,30.38-26.34,121.53-26.34,121.53h49.51s15.06-86.78,21.64-115.71c5.64-24.8,27.26-99.19,27.26-99.19,4.74-19.82-1.75-35.77-1.75-35.77,0,0-61.22-.03-61.22,0Z" style="fill:#37474f;"></path><g><path d="M254.53,417.17c7.78-.04,5.55-.14,13.33-.09,3.81,.02,28.83,.19,32.38,.84,.08,.01,.08,.15,0,.16-3.57,.53-28.58-.07-32.39-.17-7.78-.2-5.54-.22-13.32-.51-.15,0-.14-.23,0-.23Z" style="fill:#263238;"></path><g><path d="M291.45,212.23c4.83,2.55,9.36,5.8,13.66,9.14,.17,.13,0,.4-.18,.28-4.63-2.9-9.37-5.72-13.83-8.87-.35-.25-.01-.75,.36-.55Z" style="fill:#263238;"></path><path d="M295.23,178.03c.04-.17,.35-.16,.32,.02-.95,5.88-1.38,11.12-1.74,16.7-.17,2.59-.3,17.03,4.29,16.69,.77-.06,1.26-.73,1.55-1.83,.35-1.32,.1-3.05,.08-4.42-.03-3.03,.03-6.06,.24-9.08,.39-5.65,1.23-11.22,2.77-16.67,.05-.18,.31-.12,.28,.06-1.2,7.71-2.2,15.45-2.23,23.27-.02,3.76,.98,9.57-2.95,9.54-4-.03-5.09-9.69-5.18-12.29-.23-7.28,.9-14.92,2.57-21.98Z" style="fill:#263238;"></path><path d="M297.92,211.8c.25,1.01,.42,2.05,.54,3.08,.09,.8,.25,1.68,.04,2.47-.04,.15-.25,.14-.32,.02-.42-.74-.5-1.67-.67-2.5-.2-.96-.41-1.91-.58-2.87-.11-.64,.83-.82,.98-.19Z" style="fill:#263238;"></path></g><path d="M307.7,391.03c.13-1.15,.29-2.29,.45-3.43,.31-2.19,.68-4.38,1.02-6.57,.68-4.4,1.43-8.79,2.21-13.17,1.55-8.74,3.35-17.46,5.24-26.13,1.07-4.9,2.31-9.75,3.62-14.6,.09-.34,.57-.17,.51,.15-.8,4.43-1.56,8.87-2.47,13.29-.9,4.4-1.81,8.8-2.68,13.21-1.73,8.71-3.34,17.45-5.06,26.16-.49,2.46-.93,4.93-1.41,7.39-.24,1.23-.49,2.45-.75,3.68-.26,1.22-.64,2.42-.84,3.65-.02,.12-.19,.06-.18-.05,.19-1.17,.21-2.37,.35-3.56Z" style="fill:#263238;"></path><path d="M273.87,324.11c1.65-8.22,3.87-16.33,6.11-24.4,4.5-16.25,9.8-32.26,15.08-48.26,1.52-4.61,9.06-28.57,9.53-29.75,.05-.12,.23-.07,.19,.06-1.07,4.24-6.33,22.86-7.62,26.98-2.53,8.11-5.1,16.2-7.56,24.33-4.85,16.07-9.67,32.13-13.61,48.45-1.1,4.57-2.2,9.14-3.21,13.73-1.01,4.59-1.87,9.2-2.83,13.79-.03,.13-.24,.09-.22-.04,.83-8.37,2.49-16.65,4.14-24.89Z" style="fill:#263238;"></path><path d="M304.65,367.08c2.73-15.67,5.99-31.26,9.61-46.75,3.63-15.57,7.68-31.04,12.14-46.39,4.46-15.35,9.4-30.56,14.71-45.64,2.52-7.15,5.07-14.31,6.72-21.71,1.63-7.32,2.46-15.24,.76-22.63-.43-1.88-.98-3.71-1.69-5.5-.05-.12,.13-.23,.18-.1,5.95,13.87,2.09,29.05-2.44,42.73-2.48,7.49-5.13,14.93-7.58,22.44-2.51,7.71-4.92,15.44-7.23,23.21-4.57,15.4-8.81,30.89-12.61,46.49-3.8,15.6-7.18,31.31-10.16,47.09-2.99,15.84-5.5,31.74-8.05,47.65-.33,2.07-.59,4.15-.86,6.23-.02,.12-.2,.11-.18,0,1.91-15.77,3.98-31.47,6.7-47.12Z" style="fill:#263238;"></path></g></g></g></g><g><g><g><path d="M306.38,133.15c-10.45,21.57-23.72,44.92-36.14,48.59-11.81,3.49-41.12-25.28-46.25-34.98-1.77-3.34,22.52-18.88,25.78-16.49,6.14,4.52,17.4,18.97,19.26,18.53,1.93-.46,17.3-15.12,31.26-27.49,8.46-7.5,13.33-3.1,6.09,11.84Z" style="fill:#f7a9a0;"></path><g><path d="M234.42,154.3s-11.02-3.29-18.12-5.78c-3.96-1.39-10.55-4.38-12.99-6.73-3.66-3.52-16.7-20.57-12.64-23.82,3.68-2.94,13.03,13.13,13.03,13.13,0,0-10.87-15.38-5.79-18.11,5.08-2.73,13.23,16.83,13.23,16.83,0,0-10.81-16.05-5.13-18.04,4.3-1.5,12.68,15.8,12.68,15.8,0,0-9.2-13.86-4.84-15.6,4.81-1.92,13.55,13.57,13.55,13.57,11.81-2.55,20.19,2.75,24.46,6.44,1,.86-17.44,22.31-17.44,22.31Z" style="fill:#f7a9a0;"></path><g><path d="M206.62,135.92c-8.87-10.72-9.94-18.69-9.87-18.49,1.68,4.87,5.81,11.64,6.99,13.52,1.18,1.87,1.77,3.06,2.95,4.93,.03,.05-.04,.08-.07,.04Z" style="fill:#263238;"></path><path d="M213.96,132.52c-4.53-4.8-8.05-11.66-8.89-14.22-.07-.21,.03-.18,.14,0,1.44,2.42,7.25,11.84,8.8,14.18,.02,.04-.03,.07-.06,.03Z" style="fill:#263238;"></path><path d="M220.47,130.02c-3.73-4.6-4.93-7.03-6.56-11.21-.08-.2,.08-.16,.19,.03,2.11,3.77,3.74,6.74,6.49,11.09,.04,.07-.06,.16-.12,.09Z" style="fill:#263238;"></path></g></g></g><g><path d="M255.3,133.81l-22.58,25.55s25.59,26.88,37.08,23.61c11.5-3.27,32.4-35.36,38.78-55.51,4.42-13.94-3.18-11.48-11.02-4.46-7.83,7.02-28.35,24.47-29.28,24.25-.93-.22-12.99-13.44-12.99-13.44Z" style="fill:#D90368;"></path><path d="M308.59,127.46c-6.38,20.14-27.29,52.23-38.79,55.5-5.08,1.45-12.92-3-20.09-8.42,0,0-.01-.01,0-.01,11.43-12.57,41.92-43.07,55.72-56.81,3.89-1.38,5.96,.84,3.15,9.73Z" style="opacity:.1;"></path><path d="M240.44,163.23c3.27-3.53,16.15-18.45,18.71-21.87,.18-.24,.07-.41-.15-.18-10.07,10.34-15.67,18.29-18.7,21.92-.08,.09,.05,.22,.13,.13Z" style="fill:#263238;"></path></g></g><g><path d="M346.29,177.09h-62.51l4.83-18.48s-5.31-6.77-2.78-16.1c1.47-5.43,8.5-13.58,12.8-18.75,10.48-12.59,19.58-6.9,22.49-3.66,11.09,12.37,25.17,56.99,25.17,56.99Z" style="fill:#D90368;"></path><g><path d="M306.53,156.56c-2.64-.08-5.3-.08-7.93,.23-1.31,.15-2.6,.37-3.89,.61-.64,.12-1.29,.22-1.94,.31-.67,.1-1.38,.18-2.05,.11-.06,0-.07,.08-.01,.09,.65,.11,1.27,.2,1.93,.22,.63,.02,1.26-.03,1.88-.1,1.33-.14,2.65-.35,3.97-.51,2.67-.32,5.35-.63,8.04-.76,.12,0,.12-.22,0-.22Z" style="fill:#263238;"></path><path d="M312.68,159.75c-2.11-.51-4.28-.92-6.44-1.18-1.09-.13-2.17-.2-3.26-.24-.52-.02-1.04-.03-1.56-.03-.57,0-1.15,.07-1.72,.06-.06,0-.07,.09-.01,.09,.54,.03,1.08,.15,1.62,.2,.54,.06,1.08,.11,1.62,.17,1.08,.12,2.16,.25,3.25,.36,2.17,.22,4.33,.46,6.49,.75,.12,.02,.13-.15,.02-.18Z" style="fill:#263238;"></path></g></g><g><g><path d="M324.37,123.74c14.05,24.24,35.06,79.87,38.85,87.83,2.57,5.4-25.66,19.64-26.86,15.71-1.54-5.03-21.13-69.83-22.41-98.74-.59-13.4,5.92-12.56,10.42-4.8Z" style="fill:#f7a9a0;"></path><g><path d="M335.6,224.57c.66,4.9,3.98,14.76,6.46,16.26,2.48,1.5,15.47,1.18,22.02,1.18s7.84-1.83,7.73-4.08c-.11-2.25-13.85-2.68-13.85-2.68,0,0,18.36,5.26,22.97,6.12,4.62,.86,15.25,3.54,16.79-.29,.69-1.73-2.22-3.47-2.22-3.47,0,0,4.46,1.3,5.17-.92,.81-2.53-2.74-3.92-2.74-3.92,0,0,2.79,.56,2.85-1.5,.14-4.6-17.31-6.86-17.31-6.86,0,0,13.37,6.51,13.8,2.75,.59-5.2-26.8-10.89-29.65-13.16-2.85-2.27-5.8-5.64-5.8-5.64l-26.22,16.19Z" style="fill:#f7a9a0;"></path><g><path d="M371.71,239.07c.08-.69-.15-1.33-.62-1.75-.45-.44-1.01-.76-1.6-1.04-1.18-.54-2.46-.9-3.75-1.22-2.58-.66-5.23-1.12-7.86-1.8,2.72-.04,5.43,.26,8.09,.91,1.32,.35,2.65,.76,3.86,1.48,.6,.35,1.18,.8,1.61,1.39,.43,.59,.56,1.41,.27,2.03Z" style="fill:#263238;"></path><path d="M395.5,237.6c-1.89-.46-3.75-.99-5.61-1.53-1.86-.53-3.71-1.11-5.56-1.66l-5.53-1.73c-1.84-.58-3.69-1.15-5.55-1.71,1.94,.18,3.84,.59,5.74,1.02,1.89,.43,3.76,.97,5.61,1.54,1.85,.58,3.69,1.19,5.5,1.87,1.82,.68,3.62,1.38,5.39,2.2Z" style="fill:#263238;"></path><path d="M377.69,226.39c1.78,.09,3.55,.38,5.3,.73,1.75,.34,3.48,.81,5.18,1.33,1.7,.54,3.38,1.14,5.01,1.87,1.64,.7,3.23,1.52,4.75,2.45-1.69-.58-3.33-1.23-5.01-1.79-1.67-.57-3.34-1.14-5.03-1.65-1.68-.54-3.38-1.03-5.07-1.53-1.7-.49-3.41-.95-5.13-1.42Z" style="fill:#263238;"></path><path d="M380.39,222c2.88,.17,5.7,.87,8.43,1.78,2.72,.93,5.37,2.14,7.75,3.76-2.71-.97-5.35-1.99-8.05-2.89-2.69-.93-5.39-1.77-8.13-2.65Z" style="fill:#263238;"></path></g></g></g><g><path d="M364.87,210.3l-30.95,15.13s-18-69.67-20-92.16c-2-22.49,6.65-17.32,12.61-6.75,8.16,14.44,38.34,83.79,38.34,83.79Z" style="fill:#D90368;"></path><path d="M334.66,217.57c4.22-1.71,21.21-9.34,24.77-11.24,.25-.13,.22-.32-.05-.22-12.75,4.82-20.73,9.39-24.78,11.28-.1,.05-.05,.21,.06,.17Z" style="fill:#263238;"></path><g><path d="M323.11,181.09c-.46-3.32-1.04-6.61-1.63-9.89-.58-3.29-1.24-6.56-1.91-9.84-.69-3.27-1.38-6.54-2.15-9.79l-1.16-4.88c-.43-1.62-.81-3.24-1.27-4.85,.22,1.66,.51,3.31,.76,4.96l.87,4.94c.58,3.29,1.25,6.56,1.91,9.84,.69,3.27,1.38,6.54,2.15,9.79,.76,3.25,1.54,6.5,2.43,9.73Z" style="fill:#263238;"></path><path d="M316.75,150.37c-.22-.87-.59-1.68-.99-2.46-.42-.77-.87-1.53-1.46-2.21,.22,.88,.59,1.68,.99,2.46,.42,.77,.87,1.53,1.46,2.21Z" style="fill:#263238;"></path></g></g></g><g><path d="M302.77,130.18s11.03-9.94,17.1-10.08l5.4,4.27s1.72,.46,2.18-.64c1.14-2.72,1.03-9.13-4.71-12.97-5.26-3.51-15.56-2.14-22.34,.07-6.51,2.12-9.93,6.22-7.66,10.42,2.28,4.2,10.02,8.93,10.02,8.93Z" style="fill:#D90368;"></path><path d="M301.99,128.19s-5.69-5.23-6.66-8.4c-.97-3.17,5.28-6.6,9.37-8.04,6.32-2.23,10.72-2.07,14.52,1.16,3.8,3.22-17.23,15.29-17.23,15.29Z" style="opacity:.1;"></path><g><path d="M311.12,118.04c.1,1.13-3.64,7.59-8.49,8.93-1.58,.43-3.37-6.15-3.37-6.15l-.35-.58-4.84-8.17,8.18-10.01,1.21-1.37s1.18,2.32,2.61,5.23c.07,.13,.13,.27,.2,.41,.09,.16,.17,.31,.24,.47,.22,.43,.44,.87,.66,1.32,.16,.34,.32,.66,.48,1.03,.17,.36,.32,.71,.49,1.07,1.58,3.56,2.91,7.35,2.96,7.83Z" style="fill:#f7a9a0;"></path><path d="M306.08,105.92c-.24,7.83-4.91,12.52-7.17,14.32l-4.84-8.17,8.18-10.01,1.21-1.37s1.18,2.32,2.61,5.23Z" style="fill:#263238;"></path></g><g><path d="M278.3,98.74c-.43,16.66,9.5,18.79,13.09,18.88,3.26,.08,14.37-.06,16.52-16.58,2.15-16.52-5.46-21.99-12.91-22.56-7.45-.58-16.27,3.61-16.7,20.27Z" style="fill:#f7a9a0;"></path><g><path d="M280.73,98.06c.39-.07,.73-.2,1.11-.31,.42-.12,.77-.18,1.07-.53,.16-.19,.12-.55-.05-.72-.39-.4-.95-.38-1.47-.25-.56,.14-.96,.39-1.3,.85-.34,.45,.13,1.06,.64,.96Z" style="fill:#263238;"></path><path d="M291.95,96.66c-.39-.02-.75-.11-1.14-.17-.44-.07-.79-.08-1.13-.39-.18-.17-.19-.53-.04-.72,.34-.45,.9-.5,1.42-.43,.57,.07,1,.26,1.4,.68,.39,.4,0,1.06-.51,1.04Z" style="fill:#263238;"></path><g><g><path d="M289.71,100.01s.09,.05,.09,.1c0,1.13,.21,2.43,1.25,2.77,.03,.01,.03,.07,0,.06-1.26-.13-1.51-1.85-1.34-2.93Z" style="fill:#263238;"></path><path d="M290.67,98.79c1.82-.21,2.11,3.44,.42,3.64-1.66,.19-1.95-3.46-.42-3.64Z" style="fill:#263238;"></path></g><path d="M291.4,98.92c.33,.18,.68,.52,1.06,.53,.45,0,.75-.4,1.02-.79,.03-.04,.06-.01,.07,.04,.07,.7-.15,1.44-.89,1.6-.68,.15-1.22-.43-1.45-1.12-.04-.13,.06-.33,.19-.26Z" style="fill:#263238;"></path></g><g><g><path d="M283.25,100.47s-.08,.06-.08,.11c.13,1.13,.1,2.44-.89,2.9-.03,.01-.02,.07,.01,.06,1.23-.28,1.26-2.03,.96-3.07Z" style="fill:#263238;"></path><path d="M282.14,99.37c-1.83,.02-1.66,3.68,.04,3.66,1.67-.02,1.49-3.68-.04-3.66Z" style="fill:#263238;"></path></g><path d="M281.39,99.65c-.28,.21-.55,.57-.89,.61-.4,.05-.71-.34-.99-.7-.03-.04-.06,0-.05,.04,.01,.7,.28,1.42,.96,1.52,.62,.09,1.04-.53,1.17-1.23,.03-.13-.08-.32-.2-.24Z" style="fill:#263238;"></path></g><path d="M291.1,108.9c-.21,.32-.39,.74-.79,.86-.38,.12-.87,.05-1.25-.01-.04,0-.07,.04-.04,.07,.38,.36,1.05,.49,1.54,.29,.48-.2,.63-.69,.65-1.17,0-.07-.09-.07-.12-.03Z" style="fill:#263238;"></path><path d="M285.75,105.63s.05,1.71,.18,2.5c.01,.07,.21,.08,.48,.05,.01,0,.02,0,.03,0,1.43-.01,2.75-.73,3.41-2,.04-.09-.07-.15-.14-.09-.91,.93-2.03,1.32-3.26,1.55-.09-.21,.02-2.93-.11-2.92-.44,.03-1.24,.47-1.72,.7-.2-3.56,.18-7.12-.07-10.66-.01-.13-.2-.13-.21-.02-.66,3.71-.52,7.81-.41,11.49,0,.46,1.53-.4,1.83-.59Z" style="fill:#263238;"></path><g><path d="M286.44,107.87s.88,.96,1.98,1.23c.4,.1,.83,.11,1.26-.05,.88-.33,.82-1.16,.58-1.86-.2-.57-.52-1.04-.52-1.04,0,0-1.19,1.37-3.29,1.73Z" style="fill:#263238;"></path><path d="M288.42,109.1c.4,.1,.83,.11,1.26-.05,.88-.33,.82-1.16,.58-1.86-.96,.2-1.85,.96-1.83,1.91Z" style="fill:#ff9abb;"></path></g></g><path d="M298.54,78.1c-2.84-.47-13.19-9.18-6.36-19.34,6.72-10,24.28-3.62,21.9,8.81-1.6,8.35-9.5,11.53-15.53,10.53Z" style="fill:#263238;"></path><path d="M308.89,100.85c-2.79,.6-4.25-5.22-4.25-5.22,0,0-5.73,.8-8.75-7.18,0,0,.65,3.82,3.47,6.47,0,0-10.25,.31-15.66-7.56,0,0,2.29,4.08,4.09,5.39,0,0-4.4-.6-6.94-3.76,0,0-1.1,5.12-2.28,6.66,0,0-2-17.74,14.64-18.1,0,0,10.35-.72,15.14,6.89,4.79,7.61,.54,16.42,.54,16.42Z" style="fill:#263238;"></path><g><path d="M304.79,100.82s3.31-5.41,5.75-4.26c2.43,1.15,.16,8.84-2.54,10.04-2.7,1.2-3.86-1.28-3.86-1.28l.65-4.5Z" style="fill:#f7a9a0;"></path><path d="M309.83,98.74s.06,.06,.02,.07c-1.89,.9-2.8,2.76-3.4,4.67,.53-.75,1.29-1.19,2.3-.57,.05,.03,0,.12-.05,.11-.8-.12-1.37,.05-1.87,.72-.35,.47-.58,1.06-.82,1.6-.08,.18-.4,.11-.34-.1v-.05c-.19-2.47,1.52-6.05,4.16-6.46Z" style="fill:#263238;"></path></g></g><path d="M301.99,128.19s8.98-13.37,18.27-15.16l-.38,7.08s-7.79,.59-17.1,10.08l-.78-1.99Z" style="fill:#D90368;"></path><g><path d="M322.4,120.09c-1.73-.11-3.41,.36-4.99,.96-6.33,1.89-12.57,7.55-12.57,7.55l-1.78,1.84-.2,.21-.24-.11c-3.24-1.53-6.63-5.31-7.27-6.06,2.54,2.33,6.68,4.97,7.57,5.33l-.44,.1,1.78-1.9c.62-.61,7.52-5.75,13-7.42,.41-.14,.84-.24,1.26-.35,.43-.08,.86-.17,1.29-.21,.86-.11,1.75-.13,2.59,.06Z" style="fill:#263238;"></path><path d="M325.28,124.37c-1-.58-1.93-1.26-2.83-1.97-.9-.72-1.77-1.46-2.57-2.3,1,.58,1.93,1.26,2.83,1.97,.9,.72,1.77,1.46,2.57,2.3Z" style="fill:#263238;"></path></g><g><path d="M304.27,126.17s1.27,3.49,2.11,8.67c.33,2.05,.57,9.54-1.76,9.59-2.32,.05,.74-5.23,.85-9.21,.11-4.04-1.32-6.69-1.79-9l.59-.05Z" style="fill:#D90368;"></path><g style="opacity:.1;"><path d="M304.27,126.17s1.27,3.49,2.11,8.67c.33,2.05,.57,9.54-1.76,9.59-2.32,.05,.74-5.23,.85-9.21,.11-4.04-1.32-6.69-1.79-9l.59-.05Z"></path></g></g><g><path d="M298.59,126.8s-1.08,3.21-1.71,7.97c-.25,1.88-.28,8.73,1.84,8.72,2.12,0-.8-4.76-1-8.39-.2-3.69,1.05-6.14,1.41-8.26l-.54-.03Z" style="fill:#D90368;"></path><g style="opacity:.1;"><path d="M298.59,126.8s-1.08,3.21-1.71,7.97c-.25,1.88-.28,8.73,1.84,8.72,2.12,0-.8-4.76-1-8.39-.2-3.69,1.05-6.14,1.41-8.26l-.54-.03Z"></path></g></g></g></g></g></g><g id="freepik--Character_1--inject-285"><g><g><g><polygon points="306.57 452.85 306.57 311.51 265.97 311.51 265.97 277.26 231.71 311.51 49.25 311.51 49.25 452.85 306.57 452.85" style="fill:#fff;"></polygon><path d="M306.57,452.85l-.58-141.33,.58,.58-40.6,.1h-.68v-.69l-.09-34.26,1.33,.55-34.2,34.32-.25,.25c-.28-.15-182.5,.22-182.82,.11l.98-.98-.12,141.33-.85-.85c64.14,.09,193.19,.6,257.32,.85h0Zm0,0c-64.12,.24-193.2,.75-257.32,.85h-.85v-.85l-.12-141.33v-.98h.98c-.17,.36,184.66-.44,181.85,.37l34.32-34.19,1.33-1.33v1.88l-.1,34.26-.69-.69,40.6,.1h.58c.46,.38-.92,141.45-.58,141.92h0Z" style="fill:#263238;"></path></g><g><circle cx="120.64" cy="382.18" r="11.48" transform="translate(-278.72 348.53) rotate(-67.67)" style="fill:#263238;"></circle><circle cx="177.91" cy="382.18" r="11.48" transform="translate(-243.21 401.51) rotate(-67.67)" style="fill:#263238;"></circle><circle cx="235.18" cy="382.18" r="11.48" transform="translate(-172.81 569.05) rotate(-83)" style="fill:#263238;"></circle></g></g><g><g><g><g><path d="M267.83,368.37c-2.7-.06-71.68-24.79-73.72-27.4-.78-.98,2.24-11.24,6.24-23.53,.86-2.65,3.28-47.11,3.28-47.11l43.18,14.32-1.94,48.61s22.18,21.28,24.1,24.38c1.91,3.09,1.56,10.79-1.14,10.73Z" style="fill:#d3766a;"></path><g><path d="M267.83,368.37c-2.7-.06-71.68-24.78-73.71-27.39-.69-.87,1.58-8.95,4.86-19.27h0c3.12,3.23,45.06,27.54,57.56,28.24,5.11,.29-4.65-9.86-5.07-10.29l.03,.02c6.69,6.54,16.24,15.98,17.47,17.97,1.91,3.09,1.56,10.79-1.14,10.73Z" style="fill:#263238;"></path><path d="M252.36,340.48s-6.32-3.76-15.93,2.43" style="fill:#263238;"></path></g></g><g><path d="M199.9,307.27l48.08,15.42s-.73-62.02-1.99-83.36c-.98-16.6-20.9-27.28-38.43-16.68-23.42,14.16-34.11,22.05-45.3,29.89l-2.11-1.91-29.64-.59s-2.47,35.06,35.97,46.71c13.89,4.21,32.62-10.53,32.64-10.04,.06,1.77,.79,20.56,.79,20.56Z" style="fill:#D90368;"></path><path d="M199.9,307.27l48.08,15.42s-.73-62.02-1.99-83.36c-.98-16.6-20.9-27.28-38.43-16.68-23.42,14.16-34.11,22.05-45.3,29.89l-2.11-1.91-29.64-.59s-2.47,35.06,35.97,46.71c13.89,4.21,32.62-10.53,32.64-10.04,.06,1.77,.79,20.56,.79,20.56Z" style="opacity:.4;"></path><g><path d="M199.3,286.93c.02-3.24,.4-6.49,.6-9.72,.19-3.12,.37-6.25,.57-9.37,.4-6.31,.71-12.64,1.19-18.95,.27-3.54,.65-7.07,1.02-10.6,0-.08-.12-.11-.13-.02-.53,3.24-1.03,6.49-1.47,9.75-.01-.61-.02-1.21-.05-1.81-.08-1.64-.19-3.28-.31-4.91,0-.06-.1-.05-.1,0,.05,1.61,.11,3.23,.2,4.84,.04,.8,.12,1.61,.19,2.43-1.22,9.13-2.03,18.3-2.1,27.52-.03,3.62,.25,7.24,.23,10.86,0,.11,.18,.1,.18-.02Z" style="fill:#263238;"></path><path d="M204.85,299.81c-.5-4.4-.64-17.01-.75-21.41-.22-8.89-.06-17.76,.34-26.64,.22-5.02,.58-10.01,.97-15.02,0-.03-.05-.04-.05,0-1.2,8.77-1.83,17.63-2.14,26.47-.31,8.85,.6,33.57,1.46,36.62,.03,.11,.19,.1,.18-.02Z" style="fill:#263238;"></path><path d="M199.57,240.78c-6.21,6.52-12.46,12.96-18.67,19.46-3.14,3.29-6.29,6.57-9.42,9.88-1.48,1.56-2.95,3.14-4.43,4.67-1.41,1.44-2.77,2.53-4.23,3.02-1.6,.53-3.09,.43-4.56,.47-1.7,.04-3.42,.14-5.11,.14-.08,0-.13,.18-.06,.19,1.5,.02,2.97,.12,4.45,.18,1.35,.06,2.69,.2,4.1,.03,1.28-.16,2.59-.69,3.97-1.84,1.47-1.23,2.88-2.83,4.28-4.32,6.33-6.72,12.64-13.49,18.94-20.27,3.58-3.86,7.16-7.73,10.75-11.57,.02-.02,0-.05-.01-.03Z" style="fill:#263238;"></path><path d="M202,300.49c2.92,.84,5.78,1.97,8.65,2.97,2.88,1,5.76,1.99,8.65,2.98,5.75,1.98,25.6,8.18,27.22,8.41,.1,.01,.14-.14,.06-.19-1.3-.69-14.14-5.07-17.04-6.01-5.8-1.89-11.64-3.59-17.48-5.36-1.67-.5-3.34-.97-5.01-1.46-1.67-.49-3.36-.92-5.01-1.49-.1-.03-.15,.13-.05,.16Z" style="fill:#263238;"></path></g></g></g><g><g><path d="M198.99,472.85c-2.7-.06-71.68-24.79-73.72-27.4-.78-.98,2.24-11.24,6.24-23.53,.86-2.65,18.71-43.09,18.71-43.09l46.19,16.41-20.38,42.49s22.18,21.28,24.1,24.38c1.91,3.09,1.56,10.79-1.14,10.73Z" style="fill:#d3766a;"></path><g><path d="M198.98,472.85c-2.7-.06-71.68-24.78-73.71-27.39-.69-.87,1.58-8.95,4.86-19.27h0c3.12,3.23,45.06,27.54,57.56,28.24,5.11,.29-4.65-9.86-5.07-10.29l.03,.02c6.69,6.54,16.24,15.98,17.47,17.97,1.91,3.09,1.56,10.79-1.14,10.73Z" style="fill:#263238;"></path><path d="M183.51,444.96s-6.32-3.76-15.93,2.43" style="fill:#263238;"></path></g></g><g><path d="M183.75,429.37l-50.66-20.23s31.33-69.82,30.68-71.18c-2.27-4.71-46.82-14.47-59.7-34.21-13.64-20.9,7.36-54.25,7.36-54.25l43.5,1.01s-3.77,25.47-2.17,27.49c1.06,1.34,58.52,24.12,65.52,38.84,10.7,22.5-34.52,112.53-34.52,112.53Z" style="fill:#D90368;"></path><path d="M183.75,429.37l-50.66-20.23s31.33-69.82,30.68-71.18c-2.27-4.71-46.82-14.47-59.7-34.21-13.64-20.9,7.36-54.25,7.36-54.25l43.5,1.01s-3.77,25.47-2.17,27.49c1.06,1.34,58.52,24.12,65.52,38.84,10.7,22.5-34.52,112.53-34.52,112.53Z" style="opacity:.4;"></path><g><path d="M220.85,324.69c-.37-2.34-1.07-4.59-2.16-6.69-1.19-2.29-2.85-4.29-4.68-6.1-3.83-3.79-8.37-6.96-12.84-9.95-4.64-3.1-9.46-5.92-14.4-8.52-5.02-2.63-10.14-5.05-15.31-7.37-5.15-2.3-10.39-4.38-15.6-6.54-.82-.34-1.64-.68-2.46-1.01,3.04-.52,6.06-1.1,9.1-1.66,.18-.03,.16-.28-.02-.28-5.89-.03-11.72,.76-17.22,2.94-.08,.03-.06,.17,.03,.16,2.59-.28,5.17-.67,7.73-1.11,4.7,2.08,9.36,4.22,14.03,6.36,5.04,2.31,10.06,4.69,14.97,7.29,9.72,5.14,19.29,10.79,27.8,17.81,3.86,3.18,7.35,6.87,8.86,11.74,1.4,4.53,1.07,9.39,.2,13.98-.98,5.15-2.61,10.18-4.15,15.18-1.76,5.68-3.6,11.34-5.54,16.97-1.94,5.62-12.87,34.5-13.6,35.69-.1,.17,.17,.35,.29,.19,.86-1.1,17.61-42.8,19.39-48.56,1.64-5.31,3.32-10.65,4.56-16.07,1.08-4.7,1.78-9.65,1.03-14.46Z" style="fill:#263238;"></path><path d="M171.46,333.02c-1.33-.81-2.98-1.24-4.43-1.8l-5-1.93c-3.29-1.27-6.58-2.53-9.87-3.8-6.32-2.43-12.68-4.79-18.96-7.34-10.71-4.34-22.04-10.5-26.28-21.99-.98-2.66-1.44-5.45-1.35-8.28,.11-3.42,.79-6.86,1.46-10.21,1.35-6.81,3.24-13.51,5.64-20.02,.59-1.6,1.24-3.17,1.91-4.74,.04-.1-.11-.17-.15-.07-2.66,6.29-4.94,12.73-6.65,19.34-.85,3.3-1.58,6.63-2.17,9.98-.54,3.07-.94,6.2-.55,9.32,1.42,11.34,10.91,19.32,20.54,24.11,5.93,2.95,12.23,5.15,18.41,7.52,6.5,2.49,13,4.97,19.49,7.46,1.62,.62,3.25,1.24,4.87,1.87,1.31,.5,3.78,.98,3.69,2.79-.03,.73-.37,1.41-.66,2.07-.38,.84-.76,1.68-1.13,2.52-.74,1.64-1.47,3.27-2.21,4.91-2.87,6.37-5.72,12.75-8.56,19.13-5.74,12.85-6.57,14.68-12.23,27.56-.7,1.6-1.41,3.2-2.11,4.8-.04,.08,.09,.14,.13,.06,5.81-12.81,6.96-14.49,12.75-27.31,2.92-6.45,5.8-12.92,8.67-19.4,1.42-3.19,2.83-6.39,4.25-9.58,.6-1.35,1.45-2.78,1.73-4.25,.21-1.14-.21-2.12-1.2-2.73Z" style="fill:#263238;"></path><path d="M184.79,417.43c-2.73-1.3-5.42-2.67-8.2-3.85-2.78-1.18-5.59-2.31-8.4-3.42-5.59-2.2-11.22-4.29-16.88-6.27-3.2-1.12-6.43-2.16-9.61-3.32-.09-.03-.12,.13-.04,.16,5.72,2.1,11.34,4.52,16.99,6.81,5.53,2.25,11.05,4.53,16.6,6.72,3.12,1.23,6.29,2.3,9.44,3.45,.14,.05,.23-.21,.1-.28Z" style="fill:#263238;"></path><path d="M115.9,279.39c2.62-.58,5.14-1.42,7.66-2.33,2.08-.75,4.21-1.52,5.72-3.23,2.94-3.33,3.4-8.21,3.29-12.45,0-.1,.17-.11,.18,0,.33,4.58,1.19,9.73-2.1,13.53-1.63,1.88-3.87,2.81-6.23,3.46-2.74,.75-5.65,1.04-8.47,1.22-.12,0-.16-.16-.04-.19Z" style="fill:#263238;"></path></g></g></g></g><g><g><path d="M146.66,203.01c13.11,16.9,35.94,35.56,46.82,34.54,7.37-.69,22.83-27.2,28.99-36.29,6.2-9.14-22.23-21.46-25.62-15.91-5.24,8.6-12.03,20.83-14.22,21.07-2.73,.3-8.8-3.73-30.05-13.32-8.98-4.05-11.51,2.71-5.93,9.91Z" style="fill:#d3766a;"></path><g><path d="M202.44,173.23c3.38-3.21,7.01-7.16,11.51-9.06,4.5-1.9,10.83,2.34,11.58,4.03,.75,1.69,3.75,12.96-.72,14.94-4.46,1.99-5.36-7.3-5.94-8.15-.58-.85-1.28-1.96-2.08-1.5-.8,.46-12.43,14.01-12.43,14.01l-1.92-14.27Z" style="fill:#d3766a;"></path><g><path d="M203,173.72c.25-.11,10.11-10.15,14.61-12.05,4.5-1.9,10.83,2.34,11.58,4.03,.75,1.69,3.75,12.96-.72,14.94-4.46,1.99-5.36-7.3-5.94-8.15-.58-.85-1.28-1.96-2.08-1.5-.8,.46-12.43,14.01-12.43,14.01l-5.02-11.28Z" style="fill:#d3766a;"></path><path d="M226.7,180.76c-.86-.46-1.43-1.48-1.92-2.31-.53-.9-.88-1.9-1.11-2.92-.2-.89-.21-1.85-.55-2.7-.32-.78-1-1.58-1.67-2.08-.62-.47-1.18,.03-1.66,.48-.7,.66-1.32,1.44-1.94,2.18-.66,.8-1.31,1.62-1.96,2.43-.67,.84-1.4,1.66-1.96,2.58-.04,.07,.05,.16,.11,.1,.66-.62,1.22-1.34,1.81-2.03,.67-.77,1.35-1.54,2.03-2.31,.64-.71,1.24-1.46,1.9-2.16,.23-.25,.66-.8,1.02-.88,.38-.08,.92,.69,1.11,.93,.62,.75,.78,1.54,.92,2.48,.13,.9,.32,1.79,.63,2.65,.28,.79,.67,1.6,1.22,2.24,.53,.62,1.27,.98,1.92,1.45,.09,.07,.19-.09,.1-.14Z" style="fill:#263238;"></path></g><g><path d="M194.05,191.73s7.35-16.77,8.93-20.16c3.17-6.79,20.97-25.35,23.85-27.02,2.89-1.67,6.75,4.06-5.14,17.08-6.27,6.86-5.67,11.94-4.42,14.34,1.25,2.4,5.65,5.96,9.76,4,4.1-1.96,4.1-9.22,7.62-11.59,3.52-2.37,4.11,5.75,3.21,10.99-.9,5.24-4.3,10.75-7.3,13.69-2.99,2.95-11.98,12.68-11.98,12.68l-24.53-14.01Z" style="fill:#d3766a;"></path><path d="M230.88,174.76c-1.02,1.91-2.1,4.27-4.12,5.26-2.09,1.03-4.09,.26-5.85-1.03-1.77-1.31-3.24-3.04-3.65-5.26-.37-2,0-4.07,.77-5.93,.96-2.3,2.4-4.33,3.96-6.25,.07-.09-.07-.18-.14-.1-1.53,1.7-6.39,6.78-5.25,12.56,.47,2.36,1.96,3.99,3.76,5.34,1.66,1.24,3.71,2.24,5.79,1.51,2.54-.89,3.77-3.83,4.87-6.1,.05-.1-.09-.1-.15,0Z" style="fill:#263238;"></path></g></g></g><g><path d="M166.65,252.95s-60.88,10.99-63.04,10.05c0,0,9.29-30.67,19.06-54.71,10.46-25.75,24.21-18.72,29.06-14.56,5.75,4.93,17.07,23.4,17.89,26.97,1.35,5.9-3.63,12.57-3.63,12.57l.66,19.67Z" style="fill:#D90368;"></path><g style="opacity:.1;"><path d="M126.18,213.36c.12,.86-.47,1.65-1.33,1.77-.86,.12-1.65-.48-1.77-1.33-.12-.86,.47-1.65,1.33-1.77,.86-.12,1.65,.48,1.77,1.33Z"></path><path d="M144.4,210.79c.12,.86-.47,1.65-1.33,1.77-.86,.12-1.65-.47-1.77-1.33-.12-.86,.48-1.65,1.33-1.77,.86-.12,1.65,.48,1.77,1.33Z"></path><path d="M162.62,208.22c.12,.86-.48,1.65-1.33,1.77-.86,.12-1.65-.48-1.77-1.33-.12-.86,.47-1.65,1.33-1.77,.86-.12,1.65,.47,1.77,1.33Z"></path><path d="M133.43,198.88c.12,.86-.47,1.65-1.33,1.77-.86,.12-1.65-.47-1.77-1.33-.12-.86,.48-1.65,1.33-1.77,.86-.12,1.65,.48,1.77,1.33Z"></path><path d="M151.65,196.31c.12,.86-.48,1.65-1.33,1.77-.86,.12-1.65-.48-1.77-1.33-.12-.86,.47-1.65,1.33-1.77,.86-.12,1.65,.48,1.77,1.33Z"></path><path d="M110.49,245.06c-.39,.05-.76-.04-1.06-.23,.3-.94,.62-1.9,.96-2.88,.72,.05,1.33,.59,1.43,1.34,.12,.85-.48,1.65-1.33,1.77Z"></path><path d="M130.04,240.72c.12,.86-.48,1.65-1.33,1.77-.86,.12-1.65-.47-1.77-1.33-.12-.86,.47-1.65,1.33-1.77,.86-.12,1.65,.48,1.77,1.33Z"></path><path d="M148.26,238.15c.12,.86-.48,1.65-1.33,1.77-.86,.12-1.65-.48-1.77-1.33-.12-.86,.47-1.65,1.33-1.77,.86-.12,1.65,.48,1.77,1.33Z"></path><path d="M166.11,236.83c-.24,.27-.57,.47-.96,.52-.86,.12-1.65-.48-1.77-1.33-.12-.86,.48-1.65,1.33-1.77,.51-.07,1,.11,1.33,.45l.07,2.13Z"></path><path d="M119.07,228.81c.12,.86-.48,1.65-1.33,1.77-.86,.12-1.65-.48-1.77-1.33-.12-.86,.47-1.65,1.33-1.77,.86-.12,1.65,.48,1.77,1.33Z"></path><path d="M137.29,226.24c.12,.86-.48,1.65-1.33,1.77s-1.65-.48-1.77-1.33c-.12-.86,.47-1.65,1.33-1.77,.86-.12,1.65,.48,1.77,1.33Z"></path><path d="M155.51,223.67c.12,.86-.48,1.65-1.33,1.77-.86,.12-1.65-.47-1.77-1.33-.12-.86,.48-1.65,1.33-1.77,.86-.12,1.65,.48,1.77,1.33Z"></path><path d="M122.93,256.17c.12,.86-.47,1.65-1.33,1.77-.86,.12-1.65-.48-1.77-1.33s.48-1.65,1.33-1.77c.86-.12,1.65,.48,1.77,1.33Z"></path><path d="M141.15,253.6c.12,.86-.47,1.65-1.33,1.77-.86,.12-1.65-.48-1.77-1.33-.12-.86,.48-1.65,1.33-1.77,.86-.12,1.65,.48,1.77,1.33Z"></path><path d="M159.37,251.03c.12,.86-.48,1.65-1.33,1.77-.86,.12-1.65-.48-1.77-1.33-.12-.86,.47-1.65,1.33-1.77,.86-.12,1.65,.48,1.77,1.33Z"></path></g><g><path d="M149.5,231.54c2.46-.02,4.93,.05,7.37,.44,1.22,.19,2.42,.44,3.62,.72,.6,.14,1.2,.26,1.8,.37,.62,.12,1.28,.21,1.91,.16,.06,0,.07,.09,.01,.1-.6,.09-1.18,.18-1.79,.18-.58,0-1.17-.06-1.75-.15-1.23-.18-2.46-.42-3.69-.61-2.49-.39-4.97-.78-7.47-.97-.12,0-.11-.22,0-.22Z" style="fill:#263238;"></path><path d="M143.78,234.62c1.96-.46,3.98-.83,5.99-1.04,1.01-.11,2.02-.15,3.03-.16,.48,0,.97,0,1.46,0,.53,.01,1.07,.1,1.6,.1,.06,0,.07,.09,.01,.1-.5,.01-1,.12-1.5,.17-.5,.05-1.01,.09-1.51,.14-1.01,.09-2.01,.2-3.02,.28-2.02,.17-4.03,.36-6.04,.6-.11,.01-.12-.16-.02-.18Z" style="fill:#263238;"></path></g></g><g><path d="M134.2,193.22c8.92,0,10.27,35.45-3.9,34.9-14.5-.56-6.82-34.9,3.9-34.9Z" style="fill:#d3766a;"></path><g><path d="M126.16,199.29c-14.53,25.08-36.27,75.2-40.2,83.43-2.66,5.59,27.5,19.83,28.74,15.77,1.59-5.2,21.29-63.72,22.61-93.63,.61-13.86-6.5-13.6-11.15-5.57Z" style="fill:#d3766a;"></path><g><path d="M115.49,295.69c-.68,5.07-4.12,15.27-6.68,16.82-2.56,1.56-16,1.22-22.78,1.22s-8.11-1.89-8-4.22c.11-2.33,14.33-2.78,14.33-2.78,0,0-18.99,5.44-23.77,6.33-4.78,.89-15.78,3.67-17.37-.3-.72-1.79,2.3-3.59,2.3-3.59,0,0-4.62,1.35-5.35-.95-.84-2.61,2.83-4.05,2.83-4.05,0,0-2.89,.58-2.95-1.55-.15-4.76,17.91-7.1,17.91-7.1,0,0-13.83,6.73-14.27,2.85-.61-5.38,27.73-11.27,30.68-13.61,2.95-2.34,6-5.83,6-5.83l27.12,16.75Z" style="fill:#d3766a;"></path><g><path d="M78.13,310.69c-.08-.71,.16-1.37,.64-1.81,.47-.45,1.04-.79,1.65-1.07,1.22-.56,2.55-.93,3.88-1.26,2.67-.68,5.41-1.16,8.13-1.86-2.81-.04-5.62,.27-8.37,.94-1.37,.36-2.74,.78-3.99,1.53-.63,.36-1.22,.83-1.67,1.43-.44,.61-.58,1.46-.28,2.11Z" style="fill:#263238;"></path><path d="M53.52,309.18c1.95-.48,3.88-1.03,5.8-1.58,1.93-.55,3.83-1.14,5.75-1.72l5.72-1.79c1.91-.6,3.81-1.19,5.74-1.76-2.01,.19-3.98,.61-5.93,1.06-1.96,.45-3.89,1.01-5.81,1.59-1.91,.6-3.82,1.23-5.7,1.94-1.88,.7-3.75,1.43-5.57,2.28Z" style="fill:#263238;"></path><path d="M71.94,297.57c-1.85,.1-3.67,.39-5.48,.76-1.81,.35-3.6,.84-5.36,1.38-1.76,.56-3.5,1.18-5.19,1.94-1.7,.73-3.34,1.57-4.92,2.53,1.75-.6,3.45-1.27,5.18-1.85,1.73-.59,3.46-1.18,5.2-1.71,1.74-.56,3.49-1.06,5.25-1.58,1.76-.51,3.53-.98,5.31-1.46Z" style="fill:#263238;"></path><path d="M69.15,293.04c-2.98,.18-5.9,.9-8.72,1.84-2.82,.97-5.55,2.21-8.02,3.89,2.81-1,5.54-2.06,8.33-2.99,2.78-.96,5.58-1.83,8.41-2.74Z" style="fill:#263238;"></path></g></g></g><g><path d="M134.47,227.3c.95-6.04,2.22-12.01,3.83-17.91-.95,6.04-2.23,12.01-3.83,17.91h0Z" style="fill:#263238;"></path><path d="M138.82,211.87c-.06,1.28-.84,2.42-1.76,3.28,.34-1.24,1.06-2.23,1.76-3.28h0Z" style="fill:#263238;"></path></g></g><g><g><path d="M139.03,194.34c.41,1.11,6.82,7.81,12,6.88,1.69-.3,.45-9.59,.45-9.59l.07-.71,.9-9.89-12.23-5.78-1.76-.75s-.07,2.72-.12,6.11c0,.16,0,.31,0,.48,0,.19-.02,.37-.02,.55-.01,.51-.03,1.02-.03,1.54,0,.39,0,.77,0,1.19,0,.41,.01,.81,.01,1.23,.1,4.08,.55,8.25,.72,8.72Z" style="fill:#d3766a;"></path><path d="M138.35,180.63c3.74,7.29,10.26,9.62,13.2,10.3l.9-9.89-12.23-5.78-1.76-.75s-.07,2.72-.12,6.11Z" style="fill:#263238;"></path></g><g><g><path d="M136.81,175.09c-4.06-.15-13.59,4.48-16,10.3-2.41,5.82-.58,14.21,1.3,14.71,1.88,.51,9.2-1.49,13.79-5.24,4.59-3.75,2.91-19.7,.91-19.78Z" style="fill:#263238;"></path><path d="M136.83,175.11c.12-.05,.1-.27-.05-.25-3.43,.54-6.88,2.36-9.97,3.9-2.49,1.24-5.02,2.63-6.82,4.81-1.8,2.18-2.48,4.75-2.07,7.53,.44,3.03,1.54,6.6,3.51,9,.06,.07,.2,.02,.16-.08-2.62-5.41-5.27-12.11-.32-17.02,4.2-4.17,10.28-5.68,15.56-7.89Z" style="fill:#263238;"></path></g><g><path d="M122.4,198.52c-3.34,1.07-11.02,9.19-11.32,15.96-.3,6.77,6.73,15.4,8.53,15.79,1.8,.39,8.21-7.22,9.83-12.24,1.08-3.36-.87-6.68-2.26-10.09-2.06-5.03-4.26-9.59-4.78-9.42Z" style="fill:#263238;"></path><path d="M131.34,216.83c-.2-6.8-5.14-12.67-8.49-18.23-.04-.06-.14-.01-.11,.05,2.3,5.51,6.69,10.02,7.89,16,.71,3.55,.11,7.27-2.43,9.99-2.2,2.36-5.23,3.81-7.99,5.39-.18,.1,0,.37,.18,.27,5.53-3,11.15-6.45,10.95-13.47Z" style="fill:#263238;"></path><path d="M121.78,199.27c.16-.12,0-.37-.17-.25-4.44,3.19-9.67,7.61-11.37,13.01-1.84,5.84,2,10.91,5.39,15.26,.04,.05,.13,0,.09-.06-3.36-4.43-7.08-10.01-4.83-15.79,1.94-4.97,6.72-9.08,10.89-12.16Z" style="fill:#263238;"></path></g><g><path d="M119.97,230.02c2.42,.97,6.16,4.6,7.38,9.16,2.08,7.81,4.92,5.96,13.78,7.24,7.49,1.08,9.83,9.13,6.31,13.54,0,0,1.78-5.27-3.39-7.27-6.18-2.39-19.06,5.09-26.58-2.6-9.73-9.94,2.51-20.07,2.51-20.07Z" style="fill:#263238;"></path><path d="M123.43,233.39c-.11-.1,.06-.28,.17-.19,1.09,.92,2.01,1.97,2.71,3.22,.9,1.61,1.11,3.42,1.89,5.07,1.99,4.2,7.23,3.55,11.06,3.45,5.14-.13,9.54,2.6,10.37,7.94,.01,.08-.11,.1-.12,.02-.58-3.31-2.89-6.17-6.15-7.19-3.1-.97-6.41,.01-9.57-.44-2.17-.31-4.36-1.01-5.54-2.98-.65-1.08-.9-2.37-1.3-3.54-.73-2.15-1.87-3.82-3.52-5.37Z" style="fill:#263238;"></path><path d="M118.72,231.11s.12,.02,.08,.07c-2.62,3.13-5.41,6.29-5.84,10.54-.47,4.58,2.28,8.85,6.07,11.23,4.24,2.66,8.34,.8,12.67-.48,3.13-.93,6.36-1.62,9.59-.83,.1,.02,.06,.19-.04,.17-5.16-.69-9.64,1.26-14.52,2.53-3.99,1.04-7.31-.06-10.22-2.96-6.41-6.39-3.65-14.65,2.2-20.29Z" style="fill:#263238;"></path></g><g><path d="M133.16,172.06c-1.34-1.18-3.14,.92-1.8,2.1,1.34,1.18,3.14-.92,1.8-2.1Z" style="fill:#D90368;"></path><path d="M134.64,174.17c-1.34-1.18-3.14,.92-1.8,2.1,1.34,1.18,3.14-.92,1.8-2.1Z" style="fill:#D90368;"></path><path d="M136.48,176.01c-1.34-1.18-3.14,.92-1.8,2.1,1.34,1.18,3.14-.92,1.8-2.1Z" style="fill:#D90368;"></path><path d="M138.48,177.55c-1.34-1.18-3.14,.92-1.8,2.1,1.34,1.18,3.14-.92,1.8-2.1Z" style="fill:#D90368;"></path><path d="M140.77,178.75c-1.34-1.18-3.14,.92-1.8,2.1,1.34,1.18,3.14-.92,1.8-2.1Z" style="fill:#D90368;"></path><path d="M143.15,179.49c-1.34-1.18-3.14,.92-1.8,2.1,1.34,1.18,3.14-.92,1.8-2.1Z" style="fill:#D90368;"></path></g></g><g><path d="M164.05,163.87c4.76,16.76-4.74,21.51-8.36,22.53-3.28,.93-14.58,3.67-21.04-12.51-6.47-16.18-.18-23.69,7.22-26.21,7.39-2.52,17.42-.57,22.18,16.19Z" style="fill:#d3766a;"></path><g><path d="M136.16,177.38c3.22-2.94,2.17-6.93,2.17-6.93,4.06-3.44,5.47-7.87,5.62-8.32,0,.39-.05,3.18-.12,4.6,10.19-5.35,10.98-14.66,10.98-14.66,4.59,2.42,5.98,4.44,6.83,5.4,0,0-1.97-6.66-6.75-10.05-5.85-4.15-20.4-1.27-24.74,7.83-4.66,9.82,6,22.13,6,22.13Z" style="fill:#263238;"></path><path d="M151.5,162.4c-1.42,1.5-3.14,2.75-4.92,3.75-.01,0-.03-.01-.01-.02,2.78-1.8,5.02-4.24,6.46-7.25,.61-1.27,1.05-2.6,1.33-3.98,.29-1.44,.48-3.12,.17-4.57-.02-.11,.15-.15,.17-.04,.34,1.53,.63,2.95,.46,4.53-.16,1.5-.61,2.98-1.3,4.32-.62,1.2-1.42,2.28-2.35,3.26" style="fill:#263238;"></path></g><g><path d="M137.68,174.42s-4.76-4.62-6.93-2.82c-2.17,1.8,2.13,9,5.18,9.51,3.05,.51,3.58-2.3,3.58-2.3l-1.83-4.39Z" style="fill:#d3766a;"></path><path d="M132.03,173.63s-.04,.07,0,.08c2.15,.42,3.56,2.07,4.66,3.85-.74-.62-1.62-.87-2.47,.02-.04,.05,.02,.12,.07,.1,.78-.33,1.4-.3,2.08,.24,.48,.39,.86,.92,1.24,1.4,.13,.16,.43,0,.32-.19,0-.01-.02-.03-.03-.04-.44-2.55-3.1-5.73-5.88-5.46Z" style="fill:#263238;"></path></g><g><path d="M161.03,161.29c-.41,.04-.8,.01-1.22,.01-.47,0-.84,.05-1.25-.23-.22-.15-.29-.52-.16-.75,.28-.52,.86-.66,1.42-.69,.61-.02,1.09,.11,1.58,.48,.47,.36,.18,1.11-.37,1.17Z" style="fill:#263238;"></path><path d="M148.89,164.23c.39-.14,.74-.33,1.11-.5,.42-.2,.78-.31,1.04-.73,.14-.22,.04-.6-.17-.75-.48-.35-1.06-.24-1.58-.03-.56,.23-.94,.56-1.23,1.1-.28,.52,.31,1.09,.83,.91Z" style="fill:#263238;"></path><g><g><path d="M152.55,167.86s-.08,.08-.06,.12c.32,1.16,.5,2.54-.46,3.18-.03,.02-.01,.08,.03,.06,1.24-.5,.99-2.33,.5-3.37Z" style="fill:#263238;"></path><path d="M151.21,166.9c-1.91,.32-1.14,4.12,.63,3.83,1.74-.29,.97-4.09-.63-3.83Z" style="fill:#263238;"></path></g><path d="M150.51,167.25c-.29,.28-.54,.73-.93,.85-.45,.14-.88-.19-1.27-.51-.04-.03-.07,0-.06,.06,.14,.73,.57,1.42,1.37,1.37,.73-.05,1.11-.8,1.15-1.56,0-.14-.15-.32-.27-.2Z" style="fill:#263238;"></path></g><g><g><path d="M159.36,165.91s.1,.04,.11,.09c.19,1.19,.61,2.51,1.76,2.7,.04,0,.04,.07,0,.07-1.34,.07-1.88-1.7-1.87-2.85Z" style="fill:#263238;"></path><path d="M160.17,164.47c1.87-.51,2.76,3.26,1.03,3.74-1.7,.47-2.6-3.31-1.03-3.74Z" style="fill:#263238;"></path></g><path d="M161.01,164.53c.35,.13,.73,.42,1.09,.36,.42-.07,.63-.55,.8-1,.02-.05,.06-.02,.07,.03,.19,.72,.13,1.53-.53,1.83-.6,.28-1.21-.23-1.56-.91-.06-.13,0-.35,.13-.3Z" style="fill:#263238;"></path></g><path d="M154.69,177.18c.33,.23,.67,.57,1.11,.54,.42-.03,.87-.29,1.23-.5,.03-.02,.08,.01,.06,.05-.24,.5-.84,.89-1.41,.88-.55,0-.89-.43-1.1-.9-.03-.07,.06-.11,.11-.07Z" style="fill:#263238;"></path><path d="M158.69,171.87s.62,1.7,.8,2.53c.02,.08-.18,.16-.45,.23-.01,0-.02,.01-.03,0-1.41,.54-2.99,.36-4.14-.64-.07-.07,.01-.18,.1-.14,1.26,.57,2.51,.51,3.82,.25,0-.24-1.16-2.88-1.03-2.92,.44-.14,1.4-.02,1.97,.02-1.19-3.58-2.95-6.95-4.08-10.53-.04-.13,.14-.21,.2-.1,2.09,3.39,3.55,7.49,4.88,11.16,.17,.46-1.67,.2-2.03,.13Z" style="fill:#263238;"></path><g><path d="M158.83,174.27s-.48,1.3-1.46,2.01c-.36,.26-.77,.44-1.26,.46-1,.03-1.27-.82-1.32-1.6-.04-.64,.09-1.24,.09-1.24,0,0,1.73,.87,3.95,.37Z" style="fill:#263238;"></path><path d="M157.37,176.28c-.36,.26-.77,.44-1.26,.46-1,.03-1.27-.82-1.32-1.6,1.03-.19,2.21,.2,2.58,1.14Z" style="fill:#ff9bbc;"></path></g></g></g></g></g></g></g></g></svg>
