<svg xmlns="http://www.w3.org/2000/svg" viewBox="0 0 750 500"><g id="freepik--background-complete--inject-392"><path d="M346.91,428A24.74,24.74,0,0,1,383,404c1.9-5.08,3.85-10.25,7.21-14.5s8.44-7.51,13.86-7.31V428Z" style="fill:#ebebeb"></path><polygon points="196.31 250.53 167.09 309.49 175.82 309.82 151.05 356.67 164.06 356.67 143.77 398.29 257.19 398.29 232.21 356.67 244.18 356.15 220.25 309.32 229.09 308.8 196.31 250.53" style="fill:#ebebeb"></polygon><path d="M201.26,318.92c.14,0-.11,25-.56,55.76s-.93,55.76-1.08,55.75.11-25,.56-55.76S201.11,318.92,201.26,318.92Z" style="fill:#e0e0e0"></path><path d="M215.16,332.67a20.47,20.47,0,0,1-1.91,2.72c-1.23,1.64-3,3.85-5,6.27l-5.1,6.17a24.12,24.12,0,0,1-2.19,2.5,19.35,19.35,0,0,1,1.9-2.73c1.24-1.63,3-3.85,5-6.27l5.1-6.17A22,22,0,0,1,215.16,332.67Z" style="fill:#e0e0e0"></path><path d="M201,350.33a62.48,62.48,0,0,1-6.4-4.66,60.59,60.59,0,0,1-6.09-5.08,61.92,61.92,0,0,1,6.41,4.66A58.39,58.39,0,0,1,201,350.33Z" style="fill:#e0e0e0"></path><path d="M200.21,379.24a13.93,13.93,0,0,1-2.14-1.7c-1.28-1.09-3-2.59-5-4.21s-3.82-3.05-5.14-4.08a15.83,15.83,0,0,1-2.1-1.75,13.71,13.71,0,0,1,2.31,1.45c1.39,1,3.26,2.35,5.26,4s3.73,3.18,4.95,4.34A14,14,0,0,1,200.21,379.24Z" style="fill:#e0e0e0"></path><path d="M216.37,361.37a4,4,0,0,1-.53.8c-.36.49-.91,1.18-1.61,2-1.41,1.67-3.45,3.89-5.76,6.3s-4.38,4.57-5.85,6.18a32.55,32.55,0,0,1-2.41,2.57,3,3,0,0,1,.52-.79c.36-.5.91-1.19,1.61-2,1.41-1.68,3.45-3.9,5.76-6.3s4.38-4.58,5.85-6.19A31.31,31.31,0,0,1,216.37,361.37Z" style="fill:#e0e0e0"></path><polygon points="434.21 317.62 552.71 317.62 574.85 286.18 598.06 318.51 625.33 318.07 595.94 278.48 463.81 279.03 434.21 317.62" style="fill:#e0e0e0"></polygon><polygon points="493.47 318.07 493.47 428.28 611.8 428.28 611.8 318.07 598.24 318.07 574.85 286.18 552.64 317.59 493.47 318.07" style="fill:#f5f5f5"></polygon><rect x="510.19" y="380.5" width="27.68" height="47.78" style="fill:#e0e0e0"></rect><rect x="554.46" y="379.15" width="43.6" height="27.01" style="fill:#e0e0e0"></rect><rect x="566.55" y="379.15" width="1" height="27.26" style="fill:#ebebeb"></rect><rect x="584.68" y="379.15" width="1" height="27.26" style="fill:#ebebeb"></rect><rect x="567.05" y="393.1" width="18.13" height="1" style="fill:#ebebeb"></rect><rect x="554.46" y="325.1" width="43.6" height="27.01" style="fill:#e0e0e0"></rect><rect x="566.55" y="325.1" width="1" height="27.26" style="fill:#ebebeb"></rect><rect x="584.68" y="325.1" width="1" height="27.26" style="fill:#ebebeb"></rect><rect x="567.05" y="339.05" width="18.13" height="1" style="fill:#ebebeb"></rect><rect x="507.48" y="325.34" width="27.5" height="26.04" style="fill:#e0e0e0"></rect><rect x="445.45" y="318.07" width="48.03" height="110.2" style="fill:#e0e0e0"></rect><rect x="520.73" y="325.34" width="1" height="26.04" style="fill:#ebebeb"></rect><rect x="507.48" y="338.5" width="27.5" height="1" style="fill:#ebebeb"></rect><circle cx="574.79" cy="307.22" r="5.83" style="fill:#e0e0e0"></circle><polygon points="533.2 300.07 540.55 290.99 540.55 269.16 525.15 269.16 525.15 300.24 533.2 300.07" style="fill:#f5f5f5"></polygon><polygon points="533.2 300.07 533.2 269.16 540.55 269.16 540.55 290.99 533.2 300.07" style="fill:#ebebeb"></polygon><rect x="523.43" y="265.95" width="18.16" height="3.21" style="fill:#ebebeb"></rect><rect x="404.11" y="366.28" width="89.36" height="62" style="fill:#f5f5f5"></rect><rect x="404.11" y="366.28" width="55.95" height="62" style="fill:#e0e0e0"></rect><rect x="415.14" y="386.27" width="36.59" height="41.9" style="fill:#f5f5f5"></rect><rect x="464.98" y="386.1" width="23.57" height="6" style="fill:#ebebeb"></rect><polygon points="434.21 317.62 434.21 320.81 552.64 320.81 552.64 317.59 434.21 317.62" style="fill:#ebebeb"></polygon><polygon points="552.64 320.81 574.79 289.72 574.85 286.18 552.71 317.62 552.64 320.81" style="fill:#ebebeb"></polygon><rect x="598.24" y="318.07" width="26.52" height="2.06" style="fill:#ebebeb"></rect><rect x="518.64" y="373.18" width="9.79" height="3.72" style="fill:#e0e0e0"></rect></g><g id="freepik--Floor--inject-392"><path d="M675.17,428.28c0,.14-134.4.26-300.16.26s-300.18-.12-300.18-.26S209.2,428,375,428,675.17,428.13,675.17,428.28Z" style="fill:#263238"></path></g><g id="freepik--Character--inject-392"><path d="M442.93,138.22c-22.15-30.47-54.35-44.67-88-44.67,0,0-82.29,0-106.66,73.67-9,27.15-7,56.63,3.9,83.07a152.14,152.14,0,0,0,15.38,28.59C288.84,309.58,355,393.39,355,393.39h14.38c18.46-25.64,64.93-110.81,78.85-138.12C465.68,221,468.36,173.2,442.93,138.22ZM368.7,274.49A70.3,70.3,0,1,1,439,204.2,70.3,70.3,0,0,1,368.7,274.49Z" style="fill:#FFD400"></path><path d="M442.93,138.22c-22.15-30.47-54.35-44.67-88-44.67,0,0-82.29,0-106.66,73.67-9,27.15-7,56.63,3.9,83.07a152.14,152.14,0,0,0,15.38,28.59C288.84,309.58,355,393.39,355,393.39h14.38c18.46-25.64,64.93-110.81,78.85-138.12C465.68,221,468.36,173.2,442.93,138.22ZM368.7,274.49A70.3,70.3,0,1,1,439,204.2,70.3,70.3,0,0,1,368.7,274.49Z" style="opacity:0.4"></path><path d="M457.4,138.79c-22.15-30.46-54.35-44.66-88-44.66,0,0-82.29,0-106.66,73.67-9,27.15-7,56.63,3.91,83.07a151.8,151.8,0,0,0,15.37,28.59C303.31,310.15,369.44,394,369.44,394s76.41-105.11,93.23-138.11C480.15,221.56,482.84,173.78,457.4,138.79ZM368.79,275.07a70.3,70.3,0,1,1,70.3-70.3A69.78,69.78,0,0,1,368.79,275.07Z" style="fill:#FFD400"></path><path d="M368.7,133.9a70.3,70.3,0,0,0-66.26,46.81,60.23,60.23,0,1,1,7.35,61.83A70.29,70.29,0,1,0,368.7,133.9Z" style="fill:#FFD400"></path><path d="M368.7,133.9a70.3,70.3,0,0,0-66.26,46.81,60.23,60.23,0,1,1,7.35,61.83A70.29,70.29,0,1,0,368.7,133.9Z" style="opacity:0.4"></path><path d="M508.87,236.43A14.31,14.31,0,0,0,499.2,234c-5.76.66-14.11,1.51-14.11,1.51l0,.27-40.33,2.48-12.35-25.05-18.71,12.33s2.46,3.94,12.95,23.31a21,21,0,0,0,21.49,10.78l47.49-7v-.09c4.91-.27,10.22-.73,11-1.44,1.48-1.34,2.82-6.24,2.82-6.24s8.46,5,10.09,5.14,1.93-1.25,2.94-2.69C523.2,246.42,514.48,240.25,508.87,236.43Z" style="fill:#ffbe9d"></path><path d="M434.93,211.61s-7.84-15.09-15-29.34c-8.82-17.49-28.27-21-28.27-21l-28.18-3.7S339.9,146.92,318,173.37l-18,20.11,3.83,3.45,17.85,16,3.53,3.18,8.08-8.32-3.75,21.07-6.63,29.38,0,0,14.33-1.73,9.69-59.25,54.64,4.35L397.21,239c.88-.13,7.49-1.43,9.64-10.41a18.6,18.6,0,0,0,0-8.72l3.16,8.09Z" style="fill:#455a64"></path><path d="M346.86,197.29l-9.69,59.25-14.33,1.73a70.21,70.21,0,0,0,70.73,12.5L397.21,239l4.29-37.36Z" style="fill:#263238"></path><path d="M350.1,154.63l-1.18,48.13L358,204.2l1.22-48.78S356.05,153.92,350.1,154.63Z" style="fill:#263238"></path><path d="M388.66,203l7.51-41.34c.43-.46,6.59,1.75,8.45,3.85l-6.74,38.35Z" style="fill:#263238"></path><path d="M358.36,197.12a2.28,2.28,0,0,1,.14.82,12.72,12.72,0,0,1,0,2.28,6.31,6.31,0,0,1-1.13,3.24,4.29,4.29,0,0,1-1.59,1.34,3.76,3.76,0,0,1-2.23.27,5.27,5.27,0,0,1-3.42-2.43,7.56,7.56,0,0,1-1-3.27,13.08,13.08,0,0,1,0-2.28,2.16,2.16,0,0,1,.15-.83c.09,0,0,1.2.21,3.07a7.77,7.77,0,0,0,1.05,3,4.85,4.85,0,0,0,3.11,2.17,3.38,3.38,0,0,0,3.35-1.38,6.25,6.25,0,0,0,1.15-3C358.37,198.32,358.26,197.12,358.36,197.12Z" style="fill:#455a64"></path><path d="M353,201.37a2.08,2.08,0,0,1,1.54-3.87,2.08,2.08,0,1,1-1.54,3.87Z" style="fill:#455a64"></path><path d="M395.72,201.63a2.09,2.09,0,1,1-2.09-2.08A2.09,2.09,0,0,1,395.72,201.63Z" style="fill:#455a64"></path><path d="M398.51,200.19a7.27,7.27,0,0,1-.47,2.43,6.22,6.22,0,0,1-1.39,2.37,3.86,3.86,0,0,1-3.16,1.16,4.68,4.68,0,0,1-3-1.55,5.24,5.24,0,0,1-1.16-2.49,5.84,5.84,0,0,1-.06-1.83,1.57,1.57,0,0,1,.18-.65,14.71,14.71,0,0,0,.24,2.41,5.14,5.14,0,0,0,1.16,2.24,4.3,4.3,0,0,0,2.69,1.35,3.4,3.4,0,0,0,2.78-1,6.13,6.13,0,0,0,1.38-2.14C398.22,201.1,398.42,200.16,398.51,200.19Z" style="fill:#455a64"></path><path d="M352.83,220c-.07,0-.1-.4-.08-1,0-.31,0-.69.05-1.1,0-.22,0-.44.05-.65l0-.34,0-.18v-.17h0l.29-.26h0a12,12,0,0,1,3.45.63,12.1,12.1,0,0,1-3.51-.12h0c-.06.06.55-.49.29-.25h0v.15l0,.18,0,.35c0,.22-.05.43-.08.66,0,.42-.11.79-.16,1.11C353,219.58,352.9,220,352.83,220Z" style="fill:#455a64"></path><path d="M351.37,233.74a12,12,0,0,1,.11-3.47,11.8,11.8,0,0,1,.62-3.42,11.39,11.39,0,0,1-.1,3.47A12.2,12.2,0,0,1,351.37,233.74Z" style="fill:#455a64"></path><path d="M353.4,245.67a12,12,0,0,1-3.25-1.33c0,.06-.27-.49-.15-.26h0v-.15l0-.18,0-.35.09-.65c.06-.41.12-.79.17-1.1.12-.62.22-1,.29-1s.1.41.08,1q0,.48-.06,1.11c0,.23,0,.44-.06.66l0,.34,0,.18v.16h0c.13.23-.17-.32-.14-.26A12.1,12.1,0,0,1,353.4,245.67Z" style="fill:#455a64"></path><path d="M362.64,250.26A13,13,0,0,1,358,248a6.51,6.51,0,0,1,2.42.92A6.59,6.59,0,0,1,362.64,250.26Z" style="fill:#455a64"></path><path d="M373.64,252.79a12,12,0,0,1-3.15,1.56h-.25l0,0-.08,0-.16-.08-.31-.16-.58-.3-1-.55c-.54-.32-.86-.55-.83-.62s.41,0,1,.29c.29.12.64.27,1,.45l.59.28.32.15.16.07.08,0,0,0h-.17A12,12,0,0,1,373.64,252.79Z" style="fill:#455a64"></path><path d="M381.11,249.76c.05.14-.74.58-1.77,1s-1.91.65-2,.52.74-.58,1.77-1S381.05,249.63,381.11,249.76Z" style="fill:#455a64"></path><path d="M388.45,243.45a12.5,12.5,0,0,1-.1,3.51l-.17.22h0l0,0-.08,0-.17.07-.32.13-.61.23c-.4.14-.75.27-1.06.36-.6.2-1,.29-1,.22s.32-.27.88-.56l1-.47.61-.26.32-.13.16-.07.09,0,0,0h0l-.16.22A11.78,11.78,0,0,1,388.45,243.45Z" style="fill:#455a64"></path><path d="M389.78,230.49a20,20,0,0,1-.67,6.48,10.74,10.74,0,0,1,.08-3.26A10.53,10.53,0,0,1,389.78,230.49Z" style="fill:#455a64"></path><path d="M387.33,220.16a12.1,12.1,0,0,1,3.51.12l.23.28h0v.16l0,.18,0,.34c0,.22-.05.43-.08.65-.06.42-.11.79-.17,1.11-.11.62-.22,1-.29,1s-.09-.41-.08-1c0-.32,0-.7.06-1.12l.05-.65,0-.35v-.33h0l.23.28A12,12,0,0,1,387.33,220.16Z" style="fill:#455a64"></path><path d="M375.06,218.84a18.34,18.34,0,0,1,6.14.66,9.55,9.55,0,0,1-3.1-.07A9.78,9.78,0,0,1,375.06,218.84Z" style="fill:#455a64"></path><path d="M362.79,217.51a9.55,9.55,0,0,1,3.1.07,9.78,9.78,0,0,1,3,.59,18.34,18.34,0,0,1-6.14-.66Z" style="fill:#455a64"></path><path d="M298.5,200.57c-.07,1.2-.1,2.41-.1,3.63a70.13,70.13,0,0,0,1.43,14.14l0,.14c.12.58.26,1.15.4,1.72.54,2.26,1.19,4.49,1.91,6.69.09.27.18.55.28.82,2.58-.58,10.06-7.06,18.67-15.15l-17.84-16C300.78,199,299.31,200.29,298.5,200.57Z" style="fill:#ffbe9d"></path><path d="M411.12,96.71c.62,6.91,8.49,12.73,15.43,12.52,3.82-.12,7.69-1.82,11.36-.76,6.16,1.79,8.65,10.38,15,11.53,4.72.86,9.07-3,13.86-3.22,3.52-.19,6.84,1.57,9.76,3.55s5.7,4.27,9,5.4,6.4-.87,9.77-1.9c.83,2.14,1.38,4.78,2.45,7s2.37,6.33.47,7.21c0,0-5.31,2.75-8.38,2.6a10,10,0,0,0,9.68,2.62c.85,5.14,1.49,11.07-2,14.94a12,12,0,0,1-6,3.35c-11.14,2.88-22.79-4.91-34.1-2.79-4.64.88-8.89,3.38-13.58,4a17.48,17.48,0,0,1-13.06-3.69c-4.46-3.61-7.53-9.65-13.19-10.6-2.51-.41-5.05.31-7.51,1s-5,1.35-7.51.82-4.83-2.65-4.72-5.19" style="fill:#263238"></path><path d="M389,163.82c1.25-7,2.69-14.27,2.69-14.27s9.24.09,13.17-11.3c3.74-10.86,6.44-37,6.44-37h0a34.18,34.18,0,0,0-39,2h0L363.09,160c-1.07,6.59,3.74,12.75,10.8,13.84h0C381,175,387.77,170.46,389,163.82Z" style="fill:#ffbe9d"></path><path d="M404.39,120.83a1.52,1.52,0,0,1-1.71,1.26,1.46,1.46,0,0,1-1.32-1.63,1.53,1.53,0,0,1,1.72-1.26A1.46,1.46,0,0,1,404.39,120.83Z" style="fill:#263238"></path><path d="M407.12,119.58c-.22.16-1.21-.88-2.83-1.16s-2.94.31-3.08.09.18-.43.76-.71a4.18,4.18,0,0,1,2.52-.32,4.1,4.1,0,0,1,2.2,1.17C407.12,119.12,407.23,119.5,407.12,119.58Z" style="fill:#263238"></path><path d="M387.79,118.2a1.53,1.53,0,0,1-1.72,1.26,1.46,1.46,0,0,1-1.31-1.63,1.53,1.53,0,0,1,1.72-1.26A1.46,1.46,0,0,1,387.79,118.2Z" style="fill:#263238"></path><path d="M390.15,117.19c-.22.16-1.21-.88-2.83-1.16s-2.94.32-3.09.09.18-.42.77-.71a4.23,4.23,0,0,1,2.51-.31,4,4,0,0,1,2.21,1.17C390.15,116.74,390.26,117.12,390.15,117.19Z" style="fill:#263238"></path><path d="M393.9,130.22a10.69,10.69,0,0,1,2.71,0c.42,0,.83,0,.95-.25a2.17,2.17,0,0,0-.06-1.27c-.21-1.07-.43-2.19-.67-3.36-.91-4.77-1.48-8.67-1.29-8.71s1.08,3.81,2,8.59c.21,1.17.42,2.29.61,3.36a2.39,2.39,0,0,1-.07,1.66,1.07,1.07,0,0,1-.78.49,3.24,3.24,0,0,1-.72,0A11.06,11.06,0,0,1,393.9,130.22Z" style="fill:#263238"></path><path d="M391.65,149.55a30.25,30.25,0,0,1-14.95-7s2.39,8.72,14.31,9.68Z" style="fill:#eb996e"></path><path d="M392.53,134a3,3,0,0,0-2.42-1.54,2.73,2.73,0,0,0-2,.66,1.71,1.71,0,0,0-.46,1.91,2,2,0,0,0,2,.91,6.41,6.41,0,0,0,2.28-.87,1.85,1.85,0,0,0,.55-.4.54.54,0,0,0,.1-.6" style="fill:#eb996e"></path><path d="M389,130.5c.27,0,0,1.78,1.24,3.29s3.19,1.65,3.16,1.9-.48.26-1.27.15a4.44,4.44,0,0,1-2.65-1.48,3.83,3.83,0,0,1-.93-2.75C388.56,130.87,388.83,130.46,389,130.5Z" style="fill:#263238"></path><path d="M380.23,94.87c3.13,6.91,13.27,15.31,21.11,18.29-.72-1.42-5.12-5.43-5.83-6.85,3.16,3.43,7.73,8.09,12.56,9.26a3,3,0,0,0,1.72.05A2.29,2.29,0,0,0,411,114a49.93,49.93,0,0,0,1.66-10.66,11.94,11.94,0,0,0-2.8-8.35c-2.67-3-7-4.44-11.22-5.34A27.33,27.33,0,0,0,388,89.05c-3.47.66-6.71,2.66-7.75,5.61" style="fill:#263238"></path><path d="M361.54,120.88a67.73,67.73,0,0,1,.3-8c.79-6.1,2.7-28.27,23.16-22.57L382.82,96s1.57,14.27-8.93,21.93c0,0,.05,14.25-7.23,19.39,0,0-5.07-9.66-5.12-16.4" style="fill:#263238"></path><path d="M374.33,116.93a7.13,7.13,0,0,0-3.82-.43,5,5,0,0,0-3.2,2,5.2,5.2,0,0,0-.69,3.74,8.8,8.8,0,0,0,1.58,3.53,5.92,5.92,0,0,0,2,1.91,2.83,2.83,0,0,0,2.68,0" style="fill:#ffbe9d"></path><path d="M372.3,124.4c.13.07-.55.73-1.64.22a2.47,2.47,0,0,1-1.19-1.48,5.58,5.58,0,0,1-.26-2.19,3.28,3.28,0,0,1,.92-2.11,2.19,2.19,0,0,1,1.81-.68c1.19.18,1.41,1.06,1.27,1.06s-.49-.43-1.3-.38a2.15,2.15,0,0,0-1.73,2.19c-.09,1.32.2,2.59.83,3S372.24,124.28,372.3,124.4Z" style="fill:#eb996e"></path><path d="M492.8,117.89a3,3,0,0,1-.55.82,4.87,4.87,0,0,1-2.43,1.4,7.18,7.18,0,0,1-4.44-.31,20.34,20.34,0,0,1-5-3.14c-1.72-1.3-3.64-2.84-6.1-3.37a8.46,8.46,0,0,0-3.83.16A20.92,20.92,0,0,0,466.6,115c-1.28.65-2.58,1.37-4,2a12,12,0,0,1-4.52,1.2,7.83,7.83,0,0,1-4.66-1.35,15.17,15.17,0,0,1-3.5-3.56c-2-2.66-3.62-5.55-6.06-7.44a8.38,8.38,0,0,0-4.09-1.72,13.94,13.94,0,0,0-4.33.19c-2.8.52-5.42,1.41-8,1.74a17.42,17.42,0,0,1-7.13-.62,18.34,18.34,0,0,1-8.63-5.57,13.4,13.4,0,0,1-2.08-3.17.81.81,0,0,1,.15.2c.1.17.23.37.39.62a17.94,17.94,0,0,0,10.27,7.56,17.08,17.08,0,0,0,7,.55c2.52-.34,5.12-1.24,8-1.78a13.91,13.91,0,0,1,4.48-.21,8.9,8.9,0,0,1,4.33,1.8c2.56,2,4.19,4.92,6.17,7.54a14.51,14.51,0,0,0,3.37,3.44,7.3,7.3,0,0,0,4.35,1.27,11.46,11.46,0,0,0,4.34-1.15c1.37-.6,2.66-1.31,3.95-2a21,21,0,0,1,3.95-1.58,8.93,8.93,0,0,1,4-.15,16.23,16.23,0,0,1,6.24,3.51,20.51,20.51,0,0,0,4.88,3.16,7.12,7.12,0,0,0,4.28.39,5.15,5.15,0,0,0,2.41-1.28C492.62,118.18,492.78,117.88,492.8,117.89Z" style="fill:#263238"></path></g><g id="freepik--Tree--inject-392"><polygon points="262.48 316.54 244.34 353.13 249.75 353.33 234.38 382.41 242.46 382.41 229.86 408.24 300.25 408.24 284.75 382.41 292.18 382.08 277.33 353.02 282.82 352.7 262.48 316.54" style="fill:#455a64"></polygon><path d="M265.54,359c.15,0,0,15.5-.24,34.61s-.63,34.6-.77,34.6,0-15.5.25-34.61S265.4,359,265.54,359Z" style="fill:#263238"></path><path d="M274.17,368.39a6.2,6.2,0,0,1-1.09,1.6,41.25,41.25,0,0,1-3.16,3.43c-1.28,1.29-2.44,2.44-3.25,3.31a9.72,9.72,0,0,1-1.36,1.37,6.24,6.24,0,0,1,1.08-1.61,45.07,45.07,0,0,1,3.16-3.43c1.29-1.29,2.45-2.44,3.26-3.31A8.65,8.65,0,0,1,274.17,368.39Z" style="fill:#263238"></path><path d="M265.37,378.47a24,24,0,0,1-4-2.81,23.72,23.72,0,0,1-3.72-3.23,23.83,23.83,0,0,1,4,2.81A23.34,23.34,0,0,1,265.37,378.47Z" style="fill:#263238"></path><path d="M264.89,396.42a50.88,50.88,0,0,1-4.51-3.59,50.16,50.16,0,0,1-4.43-3.7,24,24,0,0,1,4.76,3.29A23.42,23.42,0,0,1,264.89,396.42Z" style="fill:#263238"></path><path d="M274.92,385.32c.13.1-1.93,2.78-4.83,5.73l-3.65,3.82a10.57,10.57,0,0,1-1.55,1.55c-.13-.1,1.93-2.78,4.83-5.73l3.65-3.81A11,11,0,0,1,274.92,385.32Z" style="fill:#263238"></path></g></svg>